<svg width="134" height="213" xmlns="http://www.w3.org/2000/svg" xmlns:xlink="http://www.w3.org/1999/xlink" overflow="hidden"><defs><clipPath id="clip0"><rect x="558" y="132" width="134" height="213"/></clipPath></defs><g clip-path="url(#clip0)" transform="translate(-558 -132)"><path d="M114.131 179.014C114.131 179.014 112.622 176.973 109.518 176.973 106.414 176.973 104.973 179.014 104.973 179.014 100.742 191.113 89.2297 199.791 75.6876 199.791L75.6876 202.491 143.417 202.491 143.417 199.792C129.875 199.792 118.362 191.113 114.131 179.014Z" fill="#E5E5E5" transform="matrix(1 0 0 1.00144 517.115 125.58)"/><path d="M111.269 167.303 107.836 167.303C107.213 167.303 106.707 167.804 106.696 168.427 106.61 172.884 106.009 176.051 104.973 179.014L114.132 179.014C113.095 176.051 112.495 172.884 112.409 168.427 112.397 167.804 111.892 167.303 111.269 167.303Z" fill="#D1D1D1" transform="matrix(1 0 0 1.00144 517.115 125.58)"/><path d="M48.7056 167.023C48.7056 171.233 52.1188 174.646 56.3291 174.646 60.0824 174.646 63.1998 171.933 63.8329 168.362 63.8329 168.362 63.8653 168.24 63.9509 168.24 64.0365 168.24 64.0721 168.362 64.0721 168.362 64.7052 171.933 67.8227 174.646 71.576 174.646 75.3293 174.646 78.4468 171.933 79.0799 168.362 79.0799 168.362 79.0858 168.226 79.1999 168.226 79.314 168.226 79.3193 168.362 79.3193 168.362 79.9524 171.933 83.0699 174.646 86.8232 174.646 90.5765 174.646 93.6939 171.933 94.327 168.362 94.327 168.362 94.3462 168.217 94.4489 168.217 94.5516 168.217 94.5662 168.362 94.5662 168.362 95.1994 171.933 98.3168 174.646 102.07 174.646 105.823 174.646 108.941 171.933 109.574 168.362 109.574 168.362 109.59 168.214 109.692 168.214 109.795 168.214 109.813 168.362 109.813 168.362 110.447 171.933 113.564 174.646 117.317 174.646 121.071 174.646 124.188 171.933 124.821 168.362 124.821 168.362 124.836 168.226 124.944 168.226 125.052 168.226 125.06 168.362 125.06 168.362 125.693 171.933 128.811 174.646 132.564 174.646 136.318 174.646 139.435 171.933 140.068 168.362 140.068 168.362 140.099 168.208 140.19 168.208 140.281 168.208 140.307 168.362 140.307 168.362 140.94 171.933 144.058 174.646 147.811 174.646 151.382 174.646 154.379 172.19 155.206 168.875 155.229 168.784 155.358 168.784 155.381 168.875 156.208 172.19 159.205 174.646 162.776 174.646 166.986 174.646 170.399 171.233 170.399 167.023L48.7056 167.023Z" fill="#E5E5E5" transform="matrix(1 0 0 1.00144 517.115 125.58)"/><path d="M111.378 122.153 107.726 122.153 104.988 92.0258 114.117 92.0258Z" fill="#F1F1F1" transform="matrix(1 0 0 1.00144 517.115 125.58)"/><path d="M63.7891 92.0258C63.7891 96.236 67.2122 99.6492 71.435 99.6492 75.4368 99.6492 78.7181 96.5831 79.0507 92.679 79.0516 92.6678 79.0653 92.6678 79.0662 92.679 79.3987 96.5834 82.68 99.6492 86.6819 99.6492 90.6838 99.6492 93.9653 96.5831 94.2976 92.6787 94.2985 92.6676 94.312 92.6676 94.3129 92.6787 94.6454 96.5831 97.9268 99.6492 101.929 99.6492 105.931 99.6492 109.212 96.5829 109.544 92.6783 109.545 92.6671 109.559 92.6671 109.56 92.6783 109.892 96.5829 113.173 99.6492 117.175 99.6492 121.177 99.6492 124.459 96.5831 124.791 92.6787 124.792 92.6676 124.805 92.6676 124.807 92.6787 125.139 96.5831 128.42 99.6492 132.422 99.6492 136.424 99.6492 139.706 96.5827 140.038 92.6781 140.039 92.6671 140.053 92.6671 140.053 92.6781 140.386 96.5827 143.667 99.6492 147.669 99.6492 151.892 99.6492 155.315 96.236 155.315 92.0258L63.7891 92.0258Z" fill="#E5E5E5" transform="matrix(1 0 0 1.00144 517.115 125.58)"/><path d="M164.729 133.1C164.074 132.817 163.74 132.063 164.008 131.403 164.336 130.595 164.472 129.696 164.366 128.77 164.029 125.806 161.353 123.676 158.389 124.013 158.389 124.013 154.982 123.201 151.604 123.52 148.226 123.84 144.986 125.539 144.986 125.539L143.97 125.654C141.001 125.992 138.74 128.709 139.094 131.676 139.162 132.248 139.319 132.787 139.546 133.285 137.275 134.439 135.71 136.781 135.672 139.495 135.64 141.816 136.781 143.888 138.529 145.202 140.033 146.184 145.254 147.276 149.116 147.553 149.905 147.61 151.667 147.739 152.494 147.759 154.185 147.8 156.1 147.759 157.584 147.645 161.092 147.374 164.408 146.389 165.997 145.324 167.779 144.059 168.965 142.016 168.993 139.682 169.028 136.736 167.263 134.198 164.729 133.1Z" fill="#737373" transform="matrix(1 0 0 1.00144 517.115 125.58)"/><path d="M165.997 145.324C165.648 145.079 165.243 144.909 164.805 144.836 164.804 144.836 164.804 144.836 164.803 144.837 163.437 145.732 160.656 146.399 157.148 146.67 155.665 146.784 154.052 146.828 152.361 146.787 151.535 146.767 150.725 146.726 149.936 146.67 146.074 146.392 142.746 145.696 140.693 144.794 140.692 144.793 140.692 144.793 140.692 144.793L140.01 144.793C139.468 144.793 138.963 144.944 138.529 145.202 137.678 145.707 137.105 146.631 137.1 147.691 137.094 149.298 138.491 150.612 140.098 150.612L164.235 150.612C165.806 150.612 167.161 149.406 167.231 147.837 167.278 146.798 166.778 145.874 165.997 145.324Z" fill="#505050" transform="matrix(1 0 0 1.00144 517.115 125.58)"/><path d="M168.48 148.625C168.48 148.623 168.479 148.622 168.478 148.622 167.808 148.625 167.807 149.594 167.134 149.594 166.461 149.594 166.461 148.622 165.788 148.622 165.115 148.622 165.115 149.594 164.442 149.594 163.77 149.594 163.77 148.622 163.098 148.622 162.425 148.622 162.425 149.594 161.752 149.594 161.08 149.594 161.08 148.622 160.408 148.622 159.735 148.622 159.735 149.594 159.063 149.594 158.39 149.594 158.39 148.622 157.718 148.622 157.046 148.622 157.046 149.594 156.374 149.594 155.702 149.594 155.702 148.622 155.03 148.622 154.358 148.622 154.358 149.594 153.686 149.594 153.014 149.594 153.014 148.622 152.342 148.622 151.669 148.622 151.669 149.594 150.997 149.594 150.325 149.594 150.325 148.622 149.652 148.622 148.98 148.622 148.98 149.594 148.308 149.594 147.636 149.594 147.636 148.622 146.964 148.622 146.292 148.622 146.292 149.594 145.619 149.594 144.947 149.594 144.947 148.622 144.275 148.622 143.603 148.622 143.603 149.594 142.931 149.594 142.259 149.594 142.259 148.622 141.587 148.622 140.915 148.622 140.915 149.594 140.243 149.594 139.571 149.594 139.571 148.622 138.899 148.622 138.227 148.622 138.227 149.594 137.555 149.594 136.884 149.594 136.883 148.625 136.214 148.622 136.213 148.622 136.212 148.623 136.212 148.625L139.189 163.593C139.394 164.623 140.298 165.365 141.349 165.365L163.446 165.365C164.502 165.365 165.409 164.615 165.608 163.578L168.48 148.625Z" fill="#D1D1D1" transform="matrix(1 0 0 1.00144 517.115 125.58)"/><path d="M140.367 161.066C140.309 161.066 140.259 161.022 140.254 160.963L139.341 151.377C139.335 151.315 139.381 151.259 139.443 151.253 139.506 151.25 139.562 151.293 139.568 151.355L140.481 160.941C140.487 161.004 140.441 161.06 140.378 161.066 140.375 161.066 140.371 161.066 140.367 161.066Z" fill="#E5E5E5" transform="matrix(1 0 0 1.00144 517.115 125.58)"/><path d="M142.741 160.267C142.67 160.267 142.61 160.214 142.604 160.142L141.874 151.388C141.868 151.312 141.924 151.246 141.999 151.24 142.074 151.232 142.141 151.29 142.147 151.365L142.877 160.119C142.883 160.195 142.827 160.261 142.752 160.267 142.748 160.267 142.744 160.267 142.741 160.267Z" fill="#E5E5E5" transform="matrix(1 0 0 1.00144 517.115 125.58)"/><path d="M145.114 159.469C145.031 159.469 144.961 159.405 144.955 159.32L144.408 151.397C144.402 151.309 144.468 151.232 144.556 151.226 144.638 151.222 144.72 151.287 144.726 151.375L145.274 159.298C145.28 159.386 145.213 159.463 145.126 159.468 145.122 159.469 145.118 159.469 145.114 159.469Z" fill="#E5E5E5" transform="matrix(1 0 0 1.00144 517.115 125.58)"/><path d="M147.488 158.67C147.392 158.67 147.311 158.594 147.306 158.497L146.941 151.405C146.936 151.304 147.013 151.218 147.114 151.213 147.215 151.205 147.3 151.285 147.305 151.386L147.671 158.478C147.676 158.579 147.599 158.664 147.498 158.67 147.495 158.67 147.491 158.67 147.488 158.67Z" fill="#E5E5E5" transform="matrix(1 0 0 1.00144 517.115 125.58)"/><path d="M149.862 157.871C149.751 157.871 149.66 157.783 149.657 157.672L149.474 151.411C149.471 151.297 149.56 151.203 149.673 151.2 149.788 151.202 149.881 151.286 149.885 151.399L150.067 157.66C150.071 157.773 149.981 157.868 149.868 157.871 149.866 157.871 149.864 157.871 149.862 157.871Z" fill="#E5E5E5" transform="matrix(1 0 0 1.00144 517.115 125.58)"/><path d="M152.235 157.072C152.109 157.072 152.007 156.97 152.007 156.844L152.007 151.415C152.007 151.288 152.109 151.186 152.235 151.186 152.362 151.186 152.464 151.288 152.464 151.415L152.464 156.844C152.464 156.97 152.362 157.072 152.235 157.072Z" fill="#E5E5E5" transform="matrix(1 0 0 1.00144 517.115 125.58)"/><path d="M157.762 125.503C157.763 125.504 157.765 125.504 157.766 125.503 159.057 123.76 158.54 121.368 158.436 120.888 157.696 117.465 154.397 115.975 153.865 115.746 151.935 114.914 150.162 115.048 149.301 115.173 149.299 115.173 149.298 115.176 149.3 115.177 150.058 115.544 150.954 116.117 151.008 116.888 151.16 119.038 144.592 120.049 144.151 123.174 144.056 123.852 144.213 124.883 145.537 126.308 145.713 126.497 145.915 126.655 146.134 126.784 146.135 126.785 146.136 126.785 146.136 126.784 147.123 126.013 149.089 125.289 151.417 124.922 154.386 124.455 156.975 124.722 157.762 125.503Z" fill="#FFC000" transform="matrix(1 0 0 1.00144 517.115 125.58)"/><path d="M146.876 131.586C146.818 131.586 146.759 131.564 146.715 131.519L144.55 129.354C144.46 129.265 144.46 129.121 144.55 129.032 144.639 128.942 144.783 128.942 144.872 129.032L147.037 131.196C147.127 131.286 147.127 131.43 147.037 131.519 146.993 131.564 146.935 131.586 146.876 131.586Z" fill="#FFC000" transform="matrix(1 0 0 1.00144 517.115 125.58)"/><path d="M162.989 140.64C162.931 140.64 162.873 140.617 162.828 140.573 162.739 140.483 162.739 140.339 162.828 140.25L164.993 138.085C165.082 137.996 165.227 137.996 165.316 138.085 165.405 138.174 165.405 138.319 165.316 138.408L163.151 140.573C163.106 140.617 163.048 140.64 162.989 140.64Z" fill="#505050" transform="matrix(1 0 0 1.00144 517.115 125.58)"/><path d="M162.396 138.433C162.27 138.433 162.168 138.331 162.168 138.205L162.168 135.143C162.168 135.017 162.27 134.915 162.396 134.915 162.522 134.915 162.624 135.017 162.624 135.143L162.624 138.205C162.624 138.331 162.522 138.433 162.396 138.433Z" fill="#FFFFFF" transform="matrix(1 0 0 1.00144 517.115 125.58)"/><path d="M141.516 135.694C141.457 135.694 141.399 135.672 141.354 135.627 141.265 135.538 141.265 135.394 141.354 135.305L143.519 133.14C143.609 133.051 143.753 133.051 143.842 133.14 143.931 133.229 143.931 133.373 143.842 133.463L141.677 135.627C141.632 135.672 141.574 135.694 141.516 135.694Z" fill="#505050" transform="matrix(1 0 0 1.00144 517.115 125.58)"/><path d="M159.083 130.556C159.025 130.556 158.966 130.533 158.922 130.489L156.757 128.324C156.668 128.235 156.668 128.09 156.757 128.001 156.846 127.912 156.991 127.912 157.08 128.001L159.245 130.166C159.334 130.255 159.334 130.4 159.245 130.489 159.2 130.533 159.142 130.556 159.083 130.556Z" fill="#F1F1F1" transform="matrix(1 0 0 1.00144 517.115 125.58)"/><path d="M142.634 140.715 139.573 140.715C139.446 140.715 139.344 140.613 139.344 140.487 139.344 140.361 139.446 140.259 139.573 140.259L142.634 140.259C142.761 140.259 142.863 140.361 142.863 140.487 142.863 140.613 142.761 140.715 142.634 140.715Z" fill="#FFFFFF" transform="matrix(1 0 0 1.00144 517.115 125.58)"/><path d="M152.947 132.423 149.886 132.423C149.759 132.423 149.657 132.321 149.657 132.195 149.657 132.069 149.759 131.967 149.886 131.967L152.947 131.967C153.073 131.967 153.175 132.069 153.175 132.195 153.175 132.321 153.073 132.423 152.947 132.423Z" fill="#FFFFFF" transform="matrix(1 0 0 1.00144 517.115 125.58)"/><path d="M154.18 138.889C154.121 138.889 154.063 138.867 154.018 138.823 153.929 138.733 153.929 138.589 154.018 138.5L156.183 136.335C156.272 136.246 156.417 136.246 156.506 136.335 156.595 136.424 156.595 136.569 156.506 136.658L154.341 138.823C154.296 138.867 154.238 138.889 154.18 138.889Z" fill="#505050" transform="matrix(1 0 0 1.00144 517.115 125.58)"/><path d="M155.093 143.337C155.034 143.337 154.976 143.314 154.931 143.27L152.766 141.105C152.677 141.016 152.677 140.871 152.766 140.782 152.855 140.693 153 140.693 153.089 140.782L155.254 142.947C155.343 143.037 155.343 143.181 155.254 143.27 155.209 143.314 155.151 143.337 155.093 143.337Z" fill="#FFC000" transform="matrix(1 0 0 1.00144 517.115 125.58)"/><path d="M126.212 139.683C126.185 142.016 124.998 144.059 123.216 145.325 122.404 145.933 119.718 147.142 117.383 147.576 115.112 147.998 111.975 148.26 108.832 148.185 106.568 148.13 103.851 147.882 101.955 147.576 99.3779 147.161 96.6596 145.963 95.7476 145.202 94.0016 143.887 92.8604 141.815 92.8924 139.494 92.9289 136.782 94.4946 134.438 96.7655 133.286 96.5373 132.788 96.3821 132.247 96.3136 131.677 95.9598 128.71 98.2194 125.992 101.189 125.654 101.189 125.654 104.739 123.977 108.71 123.475 112.682 122.973 115.608 124.013 115.608 124.013 118.573 123.677 121.248 125.807 121.586 128.769 121.691 129.696 121.556 130.595 121.228 131.403 120.961 132.063 121.294 132.818 121.949 133.101 124.482 134.199 126.249 136.737 126.212 139.683Z" fill="#D1D1D1" transform="matrix(1 0 0 1.00144 517.115 125.58)"/><path d="M124.452 147.842C124.379 149.41 123.023 150.613 121.453 150.613L97.3085 150.613C95.7565 150.613 94.4172 149.431 94.3243 147.882 94.2558 146.742 94.8467 145.737 95.7476 145.202 95.9459 145.086 96.1554 144.987 96.3789 144.921 96.3796 144.921 96.38 144.921 96.3807 144.921 97.7113 145.64 99.8268 146.254 102.403 146.669 104.299 146.975 106.443 147.176 108.707 147.231 111.849 147.306 114.725 147.092 116.996 146.669 119.33 146.236 121.028 145.586 121.722 144.803 121.723 144.803 121.723 144.803 121.724 144.803 122.278 144.837 122.789 145.024 123.216 145.325 123.999 145.875 124.5 146.801 124.452 147.842Z" fill="#505050" transform="matrix(1 0 0 1.00144 517.115 125.58)"/><path d="M114.285 125.729C114.285 125.73 114.287 125.73 114.288 125.729 115.58 123.985 115.063 121.594 114.959 121.114 114.218 117.69 110.919 116.201 110.387 115.971 108.458 115.14 106.684 115.273 105.823 115.399 105.821 115.399 105.821 115.402 105.823 115.403 106.58 115.769 107.476 116.343 107.53 117.114 107.682 119.264 101.115 120.274 100.674 123.399 100.578 124.078 100.735 125.109 102.06 126.534 102.236 126.723 102.438 126.881 102.656 127.01 102.657 127.011 102.658 127.011 102.659 127.01 103.645 126.239 105.611 125.514 107.94 125.148 110.909 124.681 113.497 124.948 114.285 125.729Z" fill="#FFC000" transform="matrix(1 0 0 1.00144 517.115 125.58)"/><path d="M125.839 148.625C125.839 148.623 125.838 148.622 125.836 148.622 125.166 148.625 125.165 149.594 124.493 149.594 123.82 149.594 123.82 148.622 123.146 148.622 122.474 148.622 122.474 149.594 121.801 149.594 121.129 149.594 121.129 148.622 120.456 148.622 119.784 148.622 119.784 149.594 119.111 149.594 118.439 149.594 118.439 148.622 117.766 148.622 117.094 148.622 117.094 149.594 116.422 149.594 115.749 149.594 115.749 148.622 115.077 148.622 114.405 148.622 114.405 149.594 113.733 149.594 113.061 149.594 113.061 148.622 112.389 148.622 111.717 148.622 111.717 149.594 111.045 149.594 110.373 149.594 110.373 148.622 109.7 148.622 109.028 148.622 109.028 149.594 108.356 149.594 107.683 149.594 107.683 148.622 107.011 148.622 106.339 148.622 106.339 149.594 105.666 149.594 104.994 149.594 104.994 148.622 104.322 148.622 103.65 148.622 103.65 149.594 102.978 149.594 102.306 149.594 102.306 148.622 101.634 148.622 100.962 148.622 100.962 149.594 100.29 149.594 99.6177 149.594 99.6177 148.622 98.9458 148.622 98.2737 148.622 98.2737 149.594 97.6015 149.594 96.9298 149.594 96.9298 148.622 96.2579 148.622 95.5858 148.622 95.5858 149.594 94.9136 149.594 94.2428 149.594 94.2417 148.625 93.573 148.622 93.5714 148.622 93.5702 148.623 93.5705 148.625L96.5478 163.593C96.7527 164.623 97.657 165.365 98.7073 165.365L120.804 165.365C121.86 165.365 122.768 164.615 122.967 163.578L125.839 148.625Z" fill="#FFC000" transform="matrix(1 0 0 1.00144 517.115 125.58)"/><path d="M97.9117 161.066C97.8535 161.066 97.8037 161.022 97.7983 160.963L96.8853 151.377C96.8794 151.315 96.9253 151.259 96.988 151.253 97.0522 151.248 97.1065 151.293 97.1124 151.355L98.0254 160.941C98.0313 161.004 97.9854 161.06 97.9227 161.066 97.919 161.066 97.9153 161.066 97.9117 161.066Z" fill="#FFFFFF" transform="matrix(1 0 0 1.00144 517.115 125.58)"/><path d="M100.285 159.994C100.215 159.994 100.155 159.94 100.149 159.869L99.4187 151.388C99.4121 151.313 99.468 151.246 99.5433 151.24 99.6193 151.233 99.6851 151.289 99.6915 151.365L100.422 159.845C100.428 159.92 100.373 159.987 100.297 159.993 100.293 159.994 100.289 159.994 100.285 159.994Z" fill="#FFFFFF" transform="matrix(1 0 0 1.00144 517.115 125.58)"/><path d="M102.659 158.921C102.576 158.921 102.506 158.857 102.5 158.773L101.952 151.398C101.946 151.31 102.012 151.233 102.1 151.227 102.186 151.222 102.264 151.286 102.271 151.374L102.818 158.75C102.825 158.838 102.759 158.914 102.671 158.921 102.667 158.921 102.663 158.921 102.659 158.921Z" fill="#FFFFFF" transform="matrix(1 0 0 1.00144 517.115 125.58)"/><path d="M105.033 157.848C104.937 157.848 104.856 157.773 104.85 157.676L104.485 151.406C104.48 151.305 104.556 151.219 104.657 151.213 104.759 151.208 104.844 151.284 104.85 151.384L105.215 157.655C105.221 157.756 105.144 157.842 105.043 157.848 105.04 157.848 105.036 157.848 105.033 157.848Z" fill="#FFFFFF" transform="matrix(1 0 0 1.00144 517.115 125.58)"/><path d="M107.406 156.776C107.296 156.776 107.205 156.688 107.201 156.578L107.018 151.412C107.014 151.299 107.103 151.204 107.217 151.2 107.329 151.2 107.425 151.284 107.429 151.397L107.612 156.563C107.616 156.676 107.527 156.771 107.414 156.776 107.411 156.776 107.409 156.776 107.406 156.776Z" fill="#FFFFFF" transform="matrix(1 0 0 1.00144 517.115 125.58)"/><path d="M109.78 155.703C109.654 155.703 109.552 155.601 109.552 155.475L109.552 151.415C109.552 151.288 109.654 151.186 109.78 151.186 109.906 151.186 110.008 151.288 110.008 151.415L110.008 155.475C110.008 155.601 109.906 155.703 109.78 155.703Z" fill="#FFFFFF" transform="matrix(1 0 0 1.00144 517.115 125.58)"/><path d="M103.906 131.51C103.848 131.51 103.79 131.488 103.745 131.443L101.58 129.279C101.491 129.189 101.491 129.045 101.58 128.956 101.669 128.867 101.814 128.867 101.903 128.956L104.068 131.121C104.157 131.21 104.157 131.354 104.068 131.443 104.023 131.488 103.965 131.51 103.906 131.51Z" fill="#737373" transform="matrix(1 0 0 1.00144 517.115 125.58)"/><path d="M120.02 140.564C119.962 140.564 119.903 140.541 119.859 140.497 119.769 140.407 119.769 140.263 119.859 140.174L122.024 138.009C122.113 137.92 122.257 137.92 122.346 138.009 122.436 138.098 122.436 138.242 122.346 138.332L120.181 140.497C120.137 140.541 120.078 140.564 120.02 140.564Z" fill="#505050" transform="matrix(1 0 0 1.00144 517.115 125.58)"/><path d="M119.426 138.357C119.3 138.357 119.198 138.255 119.198 138.129L119.198 135.067C119.198 134.941 119.3 134.839 119.426 134.839 119.553 134.839 119.655 134.941 119.655 135.067L119.655 138.129C119.655 138.255 119.552 138.357 119.426 138.357Z" fill="#FFFFFF" transform="matrix(1 0 0 1.00144 517.115 125.58)"/><path d="M98.5462 135.618C98.4878 135.618 98.4293 135.596 98.3848 135.552 98.2956 135.462 98.2956 135.318 98.3848 135.229L100.55 133.064C100.639 132.975 100.783 132.975 100.873 133.064 100.962 133.153 100.962 133.298 100.873 133.387L98.7075 135.552C98.663 135.596 98.6046 135.618 98.5462 135.618Z" fill="#505050" transform="matrix(1 0 0 1.00144 517.115 125.58)"/><path d="M116.114 130.48C116.055 130.48 115.997 130.457 115.952 130.413L113.787 128.248C113.698 128.159 113.698 128.015 113.787 127.925 113.877 127.836 114.021 127.836 114.11 127.925L116.275 130.09C116.364 130.179 116.364 130.324 116.275 130.413 116.231 130.457 116.172 130.48 116.114 130.48Z" fill="#F1F1F1" transform="matrix(1 0 0 1.00144 517.115 125.58)"/><path d="M99.6648 140.64 96.603 140.64C96.477 140.64 96.3748 140.538 96.3748 140.411 96.3748 140.285 96.477 140.183 96.603 140.183L99.6648 140.183C99.7907 140.183 99.893 140.285 99.893 140.411 99.893 140.538 99.7907 140.64 99.6648 140.64Z" fill="#FFFFFF" transform="matrix(1 0 0 1.00144 517.115 125.58)"/><path d="M111.21 138.814C111.152 138.814 111.093 138.791 111.049 138.747 110.959 138.658 110.959 138.513 111.049 138.424L113.214 136.259C113.303 136.17 113.447 136.17 113.536 136.259 113.626 136.349 113.626 136.493 113.536 136.582L111.372 138.747C111.327 138.791 111.268 138.814 111.21 138.814Z" fill="#505050" transform="matrix(1 0 0 1.00144 517.115 125.58)"/><path d="M112.123 143.261C112.064 143.261 112.006 143.238 111.962 143.194L109.797 141.029C109.708 140.94 109.708 140.796 109.797 140.706 109.886 140.617 110.03 140.617 110.119 140.706L112.284 142.871C112.374 142.961 112.374 143.105 112.284 143.194 112.24 143.238 112.181 143.261 112.123 143.261Z" fill="#F1F1F1" transform="matrix(1 0 0 1.00144 517.115 125.58)"/><path d="M103.45 139.27C103.392 139.27 103.333 139.248 103.289 139.203 103.199 139.114 103.199 138.97 103.289 138.881L105.454 136.716C105.543 136.627 105.687 136.627 105.776 136.716 105.866 136.805 105.866 136.949 105.776 137.039L103.611 139.203C103.567 139.248 103.508 139.27 103.45 139.27Z" fill="#F1F1F1" transform="matrix(1 0 0 1.00144 517.115 125.58)"/><path d="M110.414 128.771C110.356 128.771 110.297 128.749 110.253 128.705 110.164 128.615 110.164 128.471 110.253 128.382L112.418 126.217C112.507 126.128 112.651 126.128 112.741 126.217 112.83 126.306 112.83 126.451 112.741 126.54L110.576 128.705C110.531 128.749 110.473 128.771 110.414 128.771Z" fill="#FFC000" transform="matrix(1 0 0 1.00144 517.115 125.58)"/><path d="M83.4318 139.683C83.4045 142.016 82.2176 144.059 80.4351 145.325 79.3601 146.116 77.1609 147.082 74.826 147.515 72.5551 147.938 69.1743 148.291 66.0315 148.215 63.7674 148.161 61.1724 147.791 59.2758 147.485 56.699 147.07 54.0111 146.024 52.9674 145.202 51.2214 143.887 50.0802 141.815 50.1122 139.494 50.1487 136.782 51.7144 134.438 53.9853 133.286 53.7571 132.788 53.6019 132.247 53.5334 131.677 53.1797 128.71 55.4392 125.992 58.4085 125.654L59.3938 125.542C59.3938 125.542 62.8666 123.657 66.427 123.475 69.9875 123.292 72.8281 124.013 72.8281 124.013 75.7929 123.677 78.4678 125.807 78.8055 128.769 78.9105 129.696 78.7759 130.595 78.4472 131.403 78.1802 132.063 78.5134 132.818 79.1684 133.101 81.7018 134.199 83.4684 136.737 83.4318 139.683Z" fill="#FFC000" transform="matrix(1 0 0 1.00144 517.115 125.58)"/><path d="M81.6712 147.842C81.5982 149.41 80.2425 150.613 78.6729 150.613L54.5281 150.613C52.9761 150.613 51.6368 149.431 51.5439 147.882 51.4754 146.742 52.0663 145.737 52.9672 145.202 53.1655 145.086 53.375 144.987 53.5985 144.921 53.5992 144.921 53.5996 144.921 53.6003 144.921 54.9309 145.64 57.0464 146.254 59.6225 146.669 61.5191 146.975 63.6622 147.176 65.9263 147.231 69.0691 147.306 71.9448 147.092 74.2158 146.669 76.5499 146.236 78.2475 145.586 78.9418 144.803 78.9423 144.803 78.9429 144.803 78.9436 144.803 79.4978 144.837 80.0086 145.024 80.4351 145.325 81.2187 145.875 81.7196 146.801 81.6712 147.842Z" fill="#737373" transform="matrix(1 0 0 1.00144 517.115 125.58)"/><path d="M82.9197 148.625C82.9199 148.623 82.9185 148.622 82.9172 148.622 82.2471 148.625 82.2459 149.594 81.5738 149.594 80.9005 149.594 80.9005 148.622 80.2272 148.622 79.5544 148.622 79.5544 149.594 78.8815 149.594 78.2094 149.594 78.2094 148.622 77.5372 148.622 76.8646 148.622 76.8646 149.594 76.192 149.594 75.5197 149.594 75.5197 148.622 74.8473 148.622 74.1749 148.622 74.1749 149.594 73.5025 149.594 72.8301 149.594 72.8301 148.622 72.1578 148.622 71.4856 148.622 71.4856 149.594 70.8137 149.594 70.142 149.594 70.142 148.622 69.4701 148.622 68.7979 148.622 68.7979 149.594 68.1258 149.594 67.4536 149.594 67.4536 148.622 66.7813 148.622 66.1091 148.622 66.1091 149.594 65.4367 149.594 64.7644 149.594 64.7644 148.622 64.092 148.622 63.4198 148.622 63.4198 149.594 62.7475 149.594 62.0753 149.594 62.0753 148.622 61.4034 148.622 60.7312 148.622 60.7312 149.594 60.0589 149.594 59.3869 149.594 59.3869 148.622 58.7148 148.622 58.0426 148.622 58.0426 149.594 57.3707 149.594 56.6988 149.594 56.6988 148.622 56.0269 148.622 55.3547 148.622 55.3547 149.594 54.6826 149.594 54.0109 149.594 54.0109 148.622 53.339 148.622 52.6668 148.622 52.6668 149.594 51.9947 149.594 51.3239 149.594 51.3227 148.625 50.654 148.622 50.6524 148.622 50.6513 148.623 50.6515 148.625L53.6288 163.593C53.8338 164.623 54.738 165.365 55.7884 165.365L77.8853 165.365C78.9413 165.365 79.8486 164.615 80.0478 163.578L82.9197 148.625Z" fill="#505050" transform="matrix(1 0 0 1.00144 517.115 125.58)"/><path d="M54.8067 161.066C54.7485 161.066 54.6988 161.022 54.6933 160.963L53.7804 151.377C53.7744 151.315 53.8203 151.259 53.8831 151.253 53.9463 151.248 54.0015 151.293 54.0075 151.355L54.9204 160.941C54.9263 161.004 54.8805 161.06 54.8177 161.066 54.8138 161.066 54.8102 161.066 54.8067 161.066Z" fill="#2F2F2F" transform="matrix(1 0 0 1.00144 517.115 125.58)"/><path d="M57.1801 160.267C57.1096 160.267 57.0498 160.214 57.0437 160.142L56.3133 151.388C56.3071 151.312 56.3631 151.246 56.4384 151.24 56.513 151.231 56.5799 151.29 56.5863 151.365L57.3166 160.119C57.3228 160.195 57.2669 160.261 57.1916 160.267 57.1879 160.267 57.184 160.267 57.1801 160.267Z" fill="#2F2F2F" transform="matrix(1 0 0 1.00144 517.115 125.58)"/><path d="M59.5538 159.469C59.4705 159.469 59.4004 159.405 59.3945 159.32L58.8467 151.397C58.8405 151.309 58.907 151.232 58.9951 151.226 59.0827 151.219 59.1594 151.287 59.1656 151.375L59.7133 159.298C59.7195 159.386 59.6531 159.463 59.565 159.468 59.5613 159.469 59.5577 159.469 59.5538 159.469Z" fill="#2F2F2F" transform="matrix(1 0 0 1.00144 517.115 125.58)"/><path d="M61.9274 158.67C61.8309 158.67 61.7503 158.594 61.7453 158.497L61.3801 151.405C61.3749 151.304 61.4522 151.218 61.5531 151.213 61.6524 151.206 61.7396 151.285 61.7448 151.386L62.11 158.478C62.1152 158.579 62.0379 158.664 61.937 158.67 61.9338 158.67 61.9306 158.67 61.9274 158.67Z" fill="#2F2F2F" transform="matrix(1 0 0 1.00144 517.115 125.58)"/><path d="M64.301 157.871C64.1903 157.871 64.0991 157.783 64.0959 157.672L63.9133 151.411C63.9099 151.297 63.9991 151.203 64.1125 151.2 64.2278 151.204 64.3207 151.285 64.3239 151.399L64.5065 157.66C64.5099 157.773 64.4206 157.868 64.3072 157.871 64.3052 157.871 64.3031 157.871 64.301 157.871Z" fill="#2F2F2F" transform="matrix(1 0 0 1.00144 517.115 125.58)"/><path d="M66.6749 157.072C66.5489 157.072 66.4467 156.97 66.4467 156.844L66.4467 151.415C66.4467 151.288 66.5489 151.186 66.6749 151.186 66.8009 151.186 66.9031 151.288 66.9031 151.415L66.9031 156.844C66.9031 156.97 66.8009 157.072 66.6749 157.072Z" fill="#2F2F2F" transform="matrix(1 0 0 1.00144 517.115 125.58)"/><path d="M72.2016 125.503C72.2025 125.504 72.2041 125.504 72.205 125.503 73.4968 123.76 72.9796 121.368 72.8758 120.888 72.1349 117.465 68.8363 115.975 68.3045 115.746 66.3748 114.914 64.6009 115.048 63.7403 115.173 63.738 115.173 63.7378 115.176 63.7398 115.177 64.4973 115.544 65.3929 116.117 65.4475 116.888 65.5992 119.038 59.0318 120.049 58.5906 123.174 58.495 123.852 58.6523 124.883 59.9767 126.308 60.1527 126.497 60.3549 126.655 60.5733 126.784 60.5742 126.785 60.5751 126.785 60.5758 126.784 61.5622 126.013 63.5285 125.289 65.8567 124.922 68.8256 124.455 71.4144 124.722 72.2016 125.503Z" fill="#505050" transform="matrix(1 0 0 1.00144 517.115 125.58)"/><path d="M75.16 129.224C75.16 129.833 74.6664 130.327 74.0576 130.327 73.4488 130.327 72.9552 129.833 72.9552 129.224 72.9552 128.616 73.4488 128.122 74.0576 128.122 74.6664 128.122 75.16 128.616 75.16 129.224Z" fill="#737373" transform="matrix(1 0 0 1.00144 517.115 125.58)"/><path d="M60.2745 135.692C60.2745 136.301 59.781 136.795 59.1722 136.795 58.5634 136.795 58.0698 136.301 58.0698 135.692 58.0698 135.084 58.5634 134.59 59.1722 134.59 59.781 134.59 60.2745 135.084 60.2745 135.692Z" fill="#FFFFFF" transform="matrix(1 0 0 1.00144 517.115 125.58)"/><path d="M70.3168 134.246C70.3168 134.854 69.8233 135.348 69.2145 135.348 68.6056 135.348 68.1121 134.854 68.1121 134.246 68.1121 133.637 68.6057 133.143 69.2145 133.143 69.8233 133.143 70.3168 133.637 70.3168 134.246Z" fill="#505050" transform="matrix(1 0 0 1.00144 517.115 125.58)"/><path d="M62.1237 140.091C62.1237 140.903 61.4655 141.561 60.6536 141.561 59.8417 141.561 59.1836 140.903 59.1836 140.091 59.1836 139.279 59.8417 138.621 60.6536 138.621 61.4655 138.621 62.1237 139.279 62.1237 140.091Z" fill="#737373" transform="matrix(1 0 0 1.00144 517.115 125.58)"/><path d="M56.3674 140.636C56.3674 141.245 55.8739 141.739 55.265 141.739 54.6562 141.739 54.1627 141.245 54.1627 140.636 54.1627 140.027 54.6562 139.534 55.265 139.534 55.8739 139.534 56.3674 140.027 56.3674 140.636Z" fill="#505050" transform="matrix(1 0 0 1.00144 517.115 125.58)"/><path d="M72.2201 126.753C72.2201 127.005 72.0157 127.209 71.7636 127.209 71.5115 127.209 71.3071 127.005 71.3071 126.753 71.3071 126.501 71.5115 126.296 71.7636 126.296 72.0157 126.296 72.2201 126.501 72.2201 126.753Z" fill="#FFFFFF" transform="matrix(1 0 0 1.00144 517.115 125.58)"/><path d="M77.013 131.317C77.013 131.569 76.8086 131.774 76.5565 131.774 76.3044 131.774 76.1001 131.569 76.1001 131.317 76.1001 131.065 76.3044 130.861 76.5565 130.861 76.8086 130.861 77.013 131.065 77.013 131.317Z" fill="#FFFFFF" transform="matrix(1 0 0 1.00144 517.115 125.58)"/><path d="M75.8718 136.339C75.8718 136.591 75.6675 136.795 75.4154 136.795 75.1632 136.795 74.9589 136.591 74.9589 136.339 74.9589 136.086 75.1632 135.882 75.4154 135.882 75.6675 135.882 75.8718 136.086 75.8718 136.339Z" fill="#FFFFFF" transform="matrix(1 0 0 1.00144 517.115 125.58)"/><path d="M74.9589 139.077C74.9589 139.329 74.7545 139.534 74.5024 139.534 74.2503 139.534 74.0459 139.329 74.0459 139.077 74.0459 138.825 74.2503 138.621 74.5024 138.621 74.7545 138.621 74.9589 138.825 74.9589 139.077Z" fill="#FFFFFF" transform="matrix(1 0 0 1.00144 517.115 125.58)"/><path d="M69.9377 130.861C69.9377 131.113 69.7334 131.317 69.4813 131.317 69.2292 131.317 69.0248 131.113 69.0248 130.861 69.0248 130.609 69.2292 130.404 69.4813 130.404 69.7334 130.404 69.9377 130.609 69.9377 130.861Z" fill="#FFFFFF" transform="matrix(1 0 0 1.00144 517.115 125.58)"/><path d="M62.6644 130.843C62.6644 131.095 62.46 131.3 62.2079 131.3 61.9558 131.3 61.7514 131.095 61.7514 130.843 61.7514 130.591 61.9558 130.387 62.2079 130.387 62.46 130.387 62.6644 130.591 62.6644 130.843Z" fill="#FFFFFF" transform="matrix(1 0 0 1.00144 517.115 125.58)"/><path d="M68.9287 128.706C68.9287 128.958 68.7243 129.162 68.4723 129.162 68.2201 129.162 68.0158 128.958 68.0158 128.706 68.0158 128.454 68.2201 128.249 68.4723 128.249 68.7243 128.249 68.9287 128.454 68.9287 128.706Z" fill="#FFFFFF" transform="matrix(1 0 0 1.00144 517.115 125.58)"/><path d="M72.8523 132.04C72.8523 132.293 72.6479 132.497 72.3958 132.497 72.1437 132.497 71.9394 132.293 71.9394 132.04 71.9394 131.788 72.1437 131.584 72.3958 131.584 72.6479 131.584 72.8523 131.788 72.8523 132.04Z" fill="#FFFFFF" transform="matrix(1 0 0 1.00144 517.115 125.58)"/><path d="M74.858 134.117C74.858 134.369 74.6536 134.573 74.4015 134.573 74.1494 134.573 73.9451 134.369 73.9451 134.117 73.9451 133.865 74.1494 133.66 74.4015 133.66 74.6536 133.66 74.858 133.865 74.858 134.117Z" fill="#FFFFFF" transform="matrix(1 0 0 1.00144 517.115 125.58)"/><path d="M65.2507 134.767C65.2507 135.019 65.0464 135.224 64.7943 135.224 64.5422 135.224 64.3378 135.019 64.3378 134.767 64.3378 134.515 64.5422 134.311 64.7943 134.311 65.0464 134.311 65.2507 134.515 65.2507 134.767Z" fill="#FFFFFF" transform="matrix(1 0 0 1.00144 517.115 125.58)"/><path d="M63.914 129.435C63.914 129.687 63.7096 129.892 63.4575 129.892 63.2054 129.892 63.001 129.687 63.001 129.435 63.001 129.183 63.2054 128.979 63.4575 128.979 63.7096 128.979 63.914 129.183 63.914 129.435Z" fill="#FFFFFF" transform="matrix(1 0 0 1.00144 517.115 125.58)"/><path d="M70.166 136.567C70.166 136.819 69.9616 137.023 69.7095 137.023 69.4574 137.023 69.253 136.819 69.253 136.567 69.253 136.315 69.4574 136.11 69.7095 136.11 69.9616 136.11 70.166 136.315 70.166 136.567Z" fill="#FFFFFF" transform="matrix(1 0 0 1.00144 517.115 125.58)"/><path d="M73.3612 133.828C73.3612 134.08 73.1569 134.284 72.9048 134.284 72.6527 134.284 72.4483 134.08 72.4483 133.828 72.4483 133.576 72.6527 133.371 72.9048 133.371 73.1569 133.371 73.3612 133.576 73.3612 133.828Z" fill="#FFFFFF" transform="matrix(1 0 0 1.00144 517.115 125.58)"/><path d="M71.3071 133.828C71.3071 133.954 71.205 134.056 71.0789 134.056 70.9529 134.056 70.8507 133.954 70.8507 133.828 70.8507 133.702 70.9529 133.6 71.0789 133.6 71.205 133.6 71.3071 133.702 71.3071 133.828Z" fill="#FFFFFF" transform="matrix(1 0 0 1.00144 517.115 125.58)"/><path d="M74.0459 132.459C74.0459 132.585 73.9438 132.687 73.8177 132.687 73.6917 132.687 73.5895 132.585 73.5895 132.459 73.5895 132.332 73.6917 132.23 73.8177 132.23 73.9438 132.23 74.0459 132.332 74.0459 132.459Z" fill="#FFFFFF" transform="matrix(1 0 0 1.00144 517.115 125.58)"/><path d="M74.5026 142.373C74.5026 143.185 73.8445 143.843 73.0326 143.843 72.2207 143.843 71.5625 143.185 71.5625 142.373 71.5625 141.561 72.2207 140.903 73.0326 140.903 73.8445 140.903 74.5026 141.561 74.5026 142.373Z" fill="#FFFFFF" transform="matrix(1 0 0 1.00144 517.115 125.58)"/><path d="M79.0673 139.89C79.0673 140.702 78.4092 141.36 77.5973 141.36 76.7854 141.36 76.1272 140.702 76.1272 139.89 76.1272 139.078 76.7854 138.42 77.5973 138.42 78.4092 138.42 79.0673 139.078 79.0673 139.89Z" fill="#FFFFFF" transform="matrix(1 0 0 1.00144 517.115 125.58)"/><path d="M67.2665 107.122C67.2081 107.122 67.1496 107.099 67.1051 107.055L64.9401 104.89C64.8509 104.801 64.8509 104.656 64.9401 104.567 65.0293 104.478 65.1736 104.478 65.2628 104.567L67.4278 106.732C67.5171 106.821 67.5171 106.966 67.4278 107.055 67.3831 107.099 67.3249 107.122 67.2665 107.122Z" fill="#737373" transform="matrix(1 0 0 1.00144 517.115 125.58)"/><path d="M59.9564 104.344C59.8304 104.344 59.7281 104.241 59.7281 104.115L59.7281 101.054C59.7281 100.928 59.8304 100.825 59.9564 100.825 60.0824 100.825 60.1846 100.928 60.1846 101.054L60.1846 104.115C60.1846 104.241 60.0826 104.344 59.9564 104.344Z" fill="#CFCFCF" transform="matrix(1 0 0 1.00144 517.115 125.58)"/><path d="M76.4938 110.102 73.432 110.102C73.306 110.102 73.2038 110 73.2038 109.873 73.2038 109.747 73.306 109.645 73.432 109.645L76.4938 109.645C76.6197 109.645 76.722 109.747 76.722 109.873 76.722 110 76.6197 110.102 76.4938 110.102Z" fill="#CFCFCF" transform="matrix(1 0 0 1.00144 517.115 125.58)"/><path d="M57.0167 115.981C56.9583 115.981 56.8999 115.959 56.8554 115.915 56.7661 115.825 56.7661 115.681 56.8554 115.592L59.0204 113.427C59.1096 113.338 59.2539 113.338 59.3431 113.427 59.4324 113.516 59.4324 113.661 59.3431 113.75L57.1781 115.915C57.1334 115.959 57.0749 115.981 57.0167 115.981Z" fill="#FFC000" transform="matrix(1 0 0 1.00144 517.115 125.58)"/><path d="M63.0181 108.632 59.9564 108.632C59.8304 108.632 59.7281 108.53 59.7281 108.403 59.7281 108.277 59.8304 108.175 59.9564 108.175L63.0181 108.175C63.1441 108.175 63.2464 108.277 63.2464 108.403 63.2464 108.53 63.1444 108.632 63.0181 108.632Z" fill="#FFC000" transform="matrix(1 0 0 1.00144 517.115 125.58)"/><path d="M110.251 107.122C110.193 107.122 110.135 107.099 110.09 107.055L107.925 104.89C107.836 104.801 107.836 104.656 107.925 104.567 108.014 104.478 108.158 104.478 108.248 104.567L110.413 106.732C110.502 106.821 110.502 106.966 110.413 107.055 110.368 107.099 110.31 107.122 110.251 107.122Z" fill="#737373" transform="matrix(1 0 0 1.00144 517.115 125.58)"/><path d="M95.2391 117.36C95.1131 117.36 95.0108 117.258 95.0108 117.132L95.0108 114.07C95.0108 113.944 95.1131 113.842 95.2391 113.842 95.3651 113.842 95.4673 113.944 95.4673 114.07L95.4673 117.132C95.4673 117.257 95.3651 117.36 95.2391 117.36Z" fill="#CFCFCF" transform="matrix(1 0 0 1.00144 517.115 125.58)"/><path d="M119.479 110.102 116.417 110.102C116.291 110.102 116.189 110 116.189 109.873 116.189 109.747 116.291 109.645 116.417 109.645L119.479 109.645C119.605 109.645 119.707 109.747 119.707 109.873 119.707 110 119.605 110.102 119.479 110.102Z" fill="#CFCFCF" transform="matrix(1 0 0 1.00144 517.115 125.58)"/><path d="M100.002 115.981C99.9432 115.981 99.8848 115.959 99.8403 115.915 99.751 115.825 99.751 115.681 99.8403 115.592L102.005 113.427C102.095 113.338 102.239 113.338 102.328 113.427 102.417 113.516 102.417 113.661 102.328 113.75L100.163 115.915C100.118 115.959 100.06 115.981 100.002 115.981Z" fill="#FFC000" transform="matrix(1 0 0 1.00144 517.115 125.58)"/><path d="M106.003 108.632 102.942 108.632C102.816 108.632 102.713 108.53 102.713 108.403 102.713 108.277 102.816 108.175 102.942 108.175L106.003 108.175C106.129 108.175 106.232 108.277 106.232 108.403 106.232 108.53 106.129 108.632 106.003 108.632Z" fill="#FFC000" transform="matrix(1 0 0 1.00144 517.115 125.58)"/><path d="M152.827 107.122C152.769 107.122 152.71 107.099 152.666 107.055L150.501 104.89C150.411 104.801 150.411 104.656 150.501 104.567 150.59 104.478 150.734 104.478 150.823 104.567L152.988 106.732C153.078 106.821 153.078 106.966 152.988 107.055 152.944 107.099 152.885 107.122 152.827 107.122Z" fill="#737373" transform="matrix(1 0 0 1.00144 517.115 125.58)"/><path d="M145.517 104.344C145.391 104.344 145.289 104.241 145.289 104.115L145.289 101.054C145.289 100.928 145.391 100.825 145.517 100.825 145.643 100.825 145.745 100.928 145.745 101.054L145.745 104.115C145.745 104.241 145.643 104.344 145.517 104.344Z" fill="#CFCFCF" transform="matrix(1 0 0 1.00144 517.115 125.58)"/><path d="M162.054 110.102 158.993 110.102C158.866 110.102 158.764 110 158.764 109.873 158.764 109.747 158.866 109.645 158.993 109.645L162.054 109.645C162.181 109.645 162.283 109.747 162.283 109.873 162.283 110 162.181 110.102 162.054 110.102Z" fill="#CFCFCF" transform="matrix(1 0 0 1.00144 517.115 125.58)"/><path d="M142.577 115.981C142.519 115.981 142.46 115.959 142.416 115.915 142.327 115.825 142.327 115.681 142.416 115.592L144.581 113.427C144.67 113.338 144.814 113.338 144.903 113.427 144.993 113.516 144.993 113.661 144.903 113.75L142.739 115.915C142.694 115.959 142.636 115.981 142.577 115.981Z" fill="#FFC000" transform="matrix(1 0 0 1.00144 517.115 125.58)"/><path d="M148.579 108.632 145.517 108.632C145.391 108.632 145.289 108.53 145.289 108.403 145.289 108.277 145.391 108.175 145.517 108.175L148.579 108.175C148.705 108.175 148.807 108.277 148.807 108.403 148.807 108.53 148.705 108.632 148.579 108.632Z" fill="#FFC000" transform="matrix(1 0 0 1.00144 517.115 125.58)"/><path d="M145.345 69.1202C144.982 69.7113 144.418 70.2591 143.763 70.7087 143.237 71.0951 140.179 72.2292 137.816 72.6243 135.621 72.994 132.492 73.2428 129.554 73.172 127.491 73.1218 124.748 73.0084 122.981 72.7459 120.217 72.3374 116.499 71.0114 116.021 70.5832 115.423 70.1473 114.914 69.6292 114.577 69.0723 111.931 64.7153 113.753 60.2487 117.19 58.5028 116.496 56.9918 116.462 55.0884 117.567 53.0868 118.137 52.0506 119.582 51.1034 120.755 50.9688L136.788 49.1452C138.181 48.9854 139.561 49.5309 140.468 50.6013 142.59 53.105 142.387 55.9671 140.935 57.8706 145.489 58.7696 148.474 64.0326 145.345 69.1202Z" fill="#FFC000" transform="matrix(1 0 0 1.00144 517.115 125.58)"/><path d="M143.763 70.7078C143.407 70.4278 142.984 70.229 142.522 70.1395 142.515 70.1381 142.508 70.14 142.503 70.1445 141.655 70.8835 139.884 71.4916 137.53 71.8866 135.334 72.2552 132.631 72.439 129.692 72.3677 127.63 72.318 125.668 72.1477 123.902 71.8866 121.143 71.4785 118.867 70.847 117.443 70.0986 117.439 70.0966 117.435 70.0957 117.431 70.0961 116.911 70.1354 116.43 70.3079 116.022 70.5841 115.222 71.1264 114.706 72.0569 114.745 73.1052 114.804 74.6836 116.164 75.9035 117.744 75.9035L141.885 75.9035C143.425 75.9035 144.76 74.7421 144.87 73.2063 144.942 72.192 144.492 71.2807 143.763 70.7078Z" fill="#505050" transform="matrix(1 0 0 1.00144 517.115 125.58)"/><path d="M146.123 73.9159C146.123 73.9145 146.122 73.9129 146.12 73.9129 145.45 73.9159 145.449 74.8852 144.777 74.8852 144.104 74.8852 144.104 73.9129 143.43 73.9129 142.758 73.9129 142.758 74.8852 142.085 74.8852 141.413 74.8852 141.413 73.9129 140.74 73.9129 140.068 73.9129 140.068 74.8852 139.395 74.8852 138.723 74.8852 138.723 73.9129 138.05 73.9129 137.378 73.9129 137.378 74.8852 136.706 74.8852 136.033 74.8852 136.033 73.9129 135.361 73.9129 134.689 73.9129 134.689 74.8852 134.017 74.8852 133.345 74.8852 133.345 73.9129 132.673 73.9129 132.001 73.9129 132.001 74.8852 131.329 74.8852 130.657 74.8852 130.657 73.9129 129.984 73.9129 129.312 73.9129 129.312 74.8852 128.64 74.8852 127.967 74.8852 127.967 73.9129 127.295 73.9129 126.623 73.9129 126.623 74.8852 125.95 74.8852 125.278 74.8852 125.278 73.9129 124.606 73.9129 123.934 73.9129 123.934 74.8852 123.262 74.8852 122.59 74.8852 122.59 73.9129 121.918 73.9129 121.246 73.9129 121.246 74.8852 120.574 74.8852 119.902 74.8852 119.902 73.9129 119.23 73.9129 118.558 73.9129 118.558 74.8852 117.886 74.8852 117.214 74.8852 117.214 73.9129 116.542 73.9129 115.87 73.9129 115.87 74.8852 115.198 74.8852 114.527 74.8852 114.526 73.9161 113.857 73.9129 113.855 73.9129 113.854 73.9143 113.855 73.9159L116.832 88.8839C117.037 89.9141 117.941 90.6564 118.991 90.6564L141.088 90.6564C142.144 90.6564 143.052 89.9066 143.251 88.8698L146.123 73.9159Z" fill="#737373" transform="matrix(1 0 0 1.00144 517.115 125.58)"/><path d="M118.01 86.3578C117.952 86.3578 117.902 86.3135 117.896 86.2544L116.983 76.6686C116.977 76.6058 117.024 76.5501 117.086 76.5442 117.147 76.5364 117.205 76.5839 117.211 76.6469L118.124 86.2327C118.13 86.2955 118.083 86.3512 118.021 86.3571 118.017 86.3576 118.013 86.3578 118.01 86.3578Z" fill="#505050" transform="matrix(1 0 0 1.00144 517.115 125.58)"/><path d="M120.383 85.559C120.313 85.559 120.253 85.5049 120.247 85.4335L119.517 76.6789C119.511 76.6035 119.567 76.5374 119.642 76.531 119.718 76.5287 119.784 76.5807 119.79 76.656L120.52 85.4106C120.526 85.4859 120.47 85.5521 120.395 85.5585 120.391 85.5588 120.387 85.559 120.383 85.559Z" fill="#505050" transform="matrix(1 0 0 1.00144 517.115 125.58)"/><path d="M122.757 84.7602C122.674 84.7602 122.603 84.6956 122.598 84.6114L122.05 76.688C122.044 76.5999 122.11 76.5237 122.198 76.5175 122.28 76.5097 122.363 76.5778 122.369 76.6658L122.916 84.5892C122.922 84.6773 122.856 84.7535 122.768 84.7597 122.765 84.7602 122.761 84.7602 122.757 84.7602Z" fill="#505050" transform="matrix(1 0 0 1.00144 517.115 125.58)"/><path d="M125.131 83.9613C125.034 83.9613 124.954 83.8856 124.949 83.7881L124.583 76.696C124.578 76.5953 124.655 76.5095 124.756 76.5043 124.848 76.496 124.943 76.5764 124.948 76.6773L125.313 83.7694C125.318 83.8701 125.241 83.9559 125.14 83.9611 125.137 83.9613 125.134 83.9613 125.131 83.9613Z" fill="#505050" transform="matrix(1 0 0 1.00144 517.115 125.58)"/><path d="M127.504 83.1625C127.394 83.1625 127.302 83.0744 127.299 82.9631L127.117 76.7024C127.113 76.5889 127.202 76.4942 127.316 76.491 127.42 76.4906 127.524 76.5768 127.527 76.6903L127.71 82.951C127.713 83.0644 127.624 83.1591 127.51 83.1623 127.508 83.1625 127.506 83.1625 127.504 83.1625Z" fill="#505050" transform="matrix(1 0 0 1.00144 517.115 125.58)"/><path d="M129.878 82.3637C129.752 82.3637 129.65 82.2615 129.65 82.1355L129.65 76.706C129.65 76.58 129.752 76.4778 129.878 76.4778 130.004 76.4778 130.106 76.58 130.106 76.706L130.106 82.1355C130.106 82.2615 130.004 82.3637 129.878 82.3637Z" fill="#505050" transform="matrix(1 0 0 1.00144 517.115 125.58)"/><path d="M128.805 56.6881C128.805 57.2969 128.311 57.7904 127.702 57.7904 127.094 57.7904 126.6 57.2969 126.6 56.6881 126.6 56.0792 127.094 55.5857 127.702 55.5857 128.311 55.5857 128.805 56.0792 128.805 56.6881Z" fill="#737373" transform="matrix(1 0 0 1.00144 517.115 125.58)"/><path d="M124.05 63.9916C124.05 64.6004 123.557 65.0939 122.948 65.0939 122.339 65.0939 121.846 64.6004 121.846 63.9916 121.846 63.3827 122.339 62.8892 122.948 62.8892 123.557 62.8892 124.05 63.3827 124.05 63.9916Z" fill="#FFFFFF" transform="matrix(1 0 0 1.00144 517.115 125.58)"/><path d="M133.102 68.5562C133.102 69.1651 132.609 69.6586 132 69.6586 131.391 69.6586 130.898 69.1651 130.898 68.5562 130.898 67.9474 131.391 67.4539 132 67.4539 132.609 67.4539 133.102 67.9474 133.102 68.5562Z" fill="#FFFFFF" transform="matrix(1 0 0 1.00144 517.115 125.58)"/><path d="M138.559 51.6669C138.559 52.2757 138.066 52.7693 137.457 52.7693 136.848 52.7693 136.355 52.2757 136.355 51.6669 136.355 51.0581 136.848 50.5646 137.457 50.5646 138.066 50.5646 138.559 51.0581 138.559 51.6669Z" fill="#FFFFFF" transform="matrix(1 0 0 1.00144 517.115 125.58)"/><path d="M119.254 65.0825C119.254 65.6913 118.76 66.1849 118.151 66.1849 117.542 66.1849 117.049 65.6913 117.049 65.0825 117.049 64.4737 117.542 63.9802 118.151 63.9802 118.76 63.9802 119.254 64.4737 119.254 65.0825Z" fill="#505050" transform="matrix(1 0 0 1.00144 517.115 125.58)"/><path d="M139.114 66.4636C139.114 66.7157 138.91 66.92 138.658 66.92 138.406 66.92 138.201 66.7157 138.201 66.4636 138.201 66.2115 138.406 66.0071 138.658 66.0071 138.91 66.0071 139.114 66.2115 139.114 66.4636Z" fill="#FFFFFF" transform="matrix(1 0 0 1.00144 517.115 125.58)"/><path d="M136.832 53.6825C136.832 53.9346 136.627 54.1389 136.375 54.1389 136.123 54.1389 135.919 53.9346 135.919 53.6825 135.919 53.4304 136.123 53.226 136.375 53.226 136.627 53.226 136.832 53.4304 136.832 53.6825Z" fill="#FFFFFF" transform="matrix(1 0 0 1.00144 517.115 125.58)"/><path d="M124.964 56.8777C124.964 57.1298 124.759 57.3342 124.507 57.3342 124.255 57.3342 124.051 57.1298 124.051 56.8777 124.051 56.6256 124.255 56.4213 124.507 56.4213 124.759 56.4213 124.964 56.6256 124.964 56.8777Z" fill="#FFFFFF" transform="matrix(1 0 0 1.00144 517.115 125.58)"/><path d="M122.574 56.1693C122.574 56.4214 122.369 56.6258 122.117 56.6258 121.865 56.6258 121.661 56.4214 121.661 56.1693 121.661 55.9172 121.865 55.7128 122.117 55.7128 122.369 55.7128 122.574 55.9172 122.574 56.1693Z" fill="#FFFFFF" transform="matrix(1 0 0 1.00144 517.115 125.58)"/><path d="M121.716 66.2737C121.716 66.5258 121.511 66.7301 121.259 66.7301 121.007 66.7301 120.803 66.5258 120.803 66.2737 120.803 66.0216 121.007 65.8172 121.259 65.8172 121.511 65.8172 121.716 66.0216 121.716 66.2737Z" fill="#FFFFFF" transform="matrix(1 0 0 1.00144 517.115 125.58)"/><path d="M126.333 63.7248C126.333 63.9769 126.129 64.1812 125.877 64.1812 125.624 64.1812 125.42 63.9769 125.42 63.7248 125.42 63.4727 125.624 63.2683 125.877 63.2683 126.129 63.2683 126.333 63.4727 126.333 63.7248Z" fill="#FFFFFF" transform="matrix(1 0 0 1.00144 517.115 125.58)"/><path d="M125.708 54.8738C125.708 55.1259 125.504 55.3303 125.252 55.3303 125 55.3303 124.795 55.1259 124.795 54.8738 124.795 54.6217 125 54.4174 125.252 54.4174 125.504 54.4174 125.708 54.6217 125.708 54.8738Z" fill="#FFFFFF" transform="matrix(1 0 0 1.00144 517.115 125.58)"/><path d="M136.832 67.833C136.832 68.0851 136.627 68.2894 136.375 68.2894 136.123 68.2894 135.919 68.0851 135.919 67.833 135.919 67.5809 136.123 67.3765 136.375 67.3765 136.627 67.3765 136.832 67.5809 136.832 67.833Z" fill="#FFFFFF" transform="matrix(1 0 0 1.00144 517.115 125.58)"/><path d="M128.615 68.9741C128.615 69.1002 128.513 69.2024 128.387 69.2024 128.261 69.2024 128.159 69.1002 128.159 68.9741 128.159 68.8481 128.261 68.7459 128.387 68.7459 128.513 68.7459 128.615 68.8481 128.615 68.9741Z" fill="#FFFFFF" transform="matrix(1 0 0 1.00144 517.115 125.58)"/><path d="M137.496 65.3244C137.496 65.4505 137.394 65.5527 137.268 65.5527 137.142 65.5527 137.039 65.4505 137.039 65.3244 137.039 65.1984 137.142 65.0962 137.268 65.0962 137.394 65.0962 137.496 65.1984 137.496 65.3244Z" fill="#FFFFFF" transform="matrix(1 0 0 1.00144 517.115 125.58)"/><path d="M122.909 66.6918C122.909 66.8178 122.807 66.92 122.681 66.92 122.555 66.92 122.453 66.8178 122.453 66.6918 122.453 66.5658 122.555 66.4636 122.681 66.4636 122.807 66.4636 122.909 66.5658 122.909 66.6918Z" fill="#FFFFFF" transform="matrix(1 0 0 1.00144 517.115 125.58)"/><path d="M141.954 64.336C141.954 65.1478 141.295 65.806 140.484 65.806 139.672 65.806 139.013 65.1479 139.013 64.336 139.013 63.5241 139.672 62.8659 140.484 62.8659 141.295 62.8659 141.954 63.5241 141.954 64.336Z" fill="#FFFFFF" transform="matrix(1 0 0 1.00144 517.115 125.58)"/><path d="M135.859 50.7946C135.859 50.7955 135.861 50.7953 135.862 50.7944 137.154 49.0509 136.637 46.6597 136.533 46.1795 135.792 42.756 132.493 41.2661 131.961 41.0369 130.032 40.2052 128.258 40.339 127.397 40.4645 127.395 40.4647 127.395 40.4677 127.397 40.4686 128.154 40.8349 129.05 41.4083 129.104 42.1797 129.256 44.3292 122.689 45.3398 122.248 48.465 122.152 49.1436 122.309 50.174 123.634 51.5991 123.81 51.7883 124.012 51.9463 124.23 52.0757 124.231 52.0761 124.232 52.0761 124.233 52.0755 125.219 51.3045 127.185 50.5798 129.514 50.2131 132.483 49.7461 135.071 50.0131 135.859 50.7946Z" fill="#505050" transform="matrix(1 0 0 1.00144 517.115 125.58)"/><path d="M105.792 64.8999C105.765 67.1982 104.614 69.2135 102.875 70.4825 101.953 71.0415 99.3831 72.3372 96.9319 72.7457 94.6929 73.12 91.5257 73.3316 88.4719 73.2631 86.2718 73.2152 83.7543 72.9869 81.8988 72.7153 79.3061 72.3365 76.2082 71.1024 75.5142 70.5533 73.6609 69.2501 72.4376 67.1138 72.4695 64.7128 72.5083 61.9991 74.074 59.6551 76.3449 58.5025 76.1167 58.005 75.9592 57.4641 75.8931 56.8935 75.5393 53.9264 77.7988 51.2082 80.7681 50.8704L95.1879 49.2317C98.1504 48.8939 100.828 51.0233 101.165 53.9858 101.27 54.9147 101.133 55.8117 100.807 56.6196 100.538 57.2815 100.873 58.0346 101.526 58.3177 104.062 59.4157 105.826 61.9537 105.792 64.8999Z" fill="#737373" transform="matrix(1 0 0 1.00144 517.115 125.58)"/><path d="M102.876 70.4835C102.445 70.2317 101.946 70.0847 101.411 70.0847L101.346 70.0847C101.345 70.0847 101.345 70.085 101.344 70.0854 100.637 70.845 98.86 71.4767 96.4099 71.8866 94.1691 72.2616 91.3675 72.4513 88.3133 72.3839 86.1134 72.3356 84.028 72.1587 82.1724 71.8866 79.5804 71.5064 77.4423 70.9392 76.0797 70.2714 76.0791 70.2712 76.0786 70.2712 76.0779 70.2714 75.8789 70.3458 75.6899 70.4401 75.5144 70.5542 74.7199 71.07 74.192 71.9615 74.1863 72.978 74.1774 74.5873 75.5158 75.9038 77.1248 75.9038L101.381 75.9038C102.995 75.9038 104.334 74.5832 104.321 72.9694 104.312 71.9079 103.733 70.9842 102.876 70.4835Z" fill="#FFC000" transform="matrix(1 0 0 1.00144 517.115 125.58)"/><path d="M94.5608 50.7946C94.5617 50.7955 94.5633 50.7953 94.5642 50.7944 95.856 49.0509 95.3388 46.6597 95.235 46.1795 94.4941 42.756 91.1954 41.2661 90.6637 41.0369 88.7339 40.2052 86.9601 40.339 86.0994 40.4645 86.0972 40.4647 86.0969 40.4677 86.099 40.4686 86.8565 40.8349 87.7521 41.4083 87.8066 42.1797 87.9584 44.3292 81.391 45.3398 80.9498 48.465 80.8542 49.1436 81.0114 50.174 82.3359 51.5991 82.5118 51.7883 82.7141 51.9463 82.9325 52.0757 82.9334 52.0761 82.9343 52.0761 82.935 52.0755 83.9214 51.3045 85.8876 50.5798 88.2159 50.2131 91.1847 49.7461 93.7734 50.0131 94.5608 50.7946Z" fill="#FFC000" transform="matrix(1 0 0 1.00144 517.115 125.58)"/><path d="M105.567 73.9159C105.567 73.9145 105.566 73.9129 105.564 73.9129 104.894 73.9159 104.893 74.8852 104.221 74.8852 103.547 74.8852 103.547 73.9129 102.874 73.9129 102.201 73.9129 102.201 74.8852 101.529 74.8852 100.856 74.8852 100.856 73.9129 100.184 73.9129 99.5114 73.9129 99.5114 74.8852 98.8388 74.8852 98.1664 74.8852 98.1664 73.9129 97.494 73.9129 96.8216 73.9129 96.8216 74.8852 96.1493 74.8852 95.4769 74.8852 95.4769 73.9129 94.8045 73.9129 94.1324 73.9129 94.1324 74.8852 93.4604 74.8852 92.7887 74.8852 92.7887 73.9129 92.1168 73.9129 91.4447 73.9129 91.4447 74.8852 90.7725 74.8852 90.1004 74.8852 90.1004 73.9129 89.428 73.9129 88.7559 73.9129 88.7559 74.8852 88.0835 74.8852 87.4111 74.8852 87.4111 73.9129 86.7387 73.9129 86.0666 73.9129 86.0666 74.8852 85.3942 74.8852 84.7221 74.8852 84.7221 73.9129 84.0501 73.9129 83.378 73.9129 83.378 74.8852 82.7056 74.8852 82.0337 74.8852 82.0337 73.9129 81.3615 73.9129 80.6894 73.9129 80.6894 74.8852 80.0175 74.8852 79.3455 74.8852 79.3455 73.9129 78.6736 73.9129 78.0015 73.9129 78.0015 74.8852 77.3293 74.8852 76.6576 74.8852 76.6576 73.9129 75.9857 73.9129 75.3136 73.9129 75.3136 74.8852 74.6414 74.8852 73.9706 74.8852 73.9695 73.9161 73.3008 73.9129 73.2992 73.9129 73.298 73.9143 73.2983 73.9159L76.2756 88.8839C76.4805 89.9141 77.3848 90.6564 78.4351 90.6564L100.532 90.6564C101.588 90.6564 102.495 89.9066 102.695 88.8698L105.567 73.9159Z" fill="#D1D1D1" transform="matrix(1 0 0 1.00144 517.115 125.58)"/><path d="M77.6395 86.3578C77.5813 86.3578 77.5315 86.3135 77.5261 86.2544L76.6131 76.6686C76.6072 76.6058 76.6531 76.5501 76.7158 76.5442 76.78 76.5358 76.8343 76.5841 76.8402 76.6469L77.7532 86.2327C77.7591 86.2955 77.7132 86.3512 77.6504 86.3571 77.6468 86.3576 77.6429 86.3578 77.6395 86.3578Z" fill="#FFFFFF" transform="matrix(1 0 0 1.00144 517.115 125.58)"/><path d="M80.0131 85.2851C79.9428 85.2851 79.883 85.2312 79.8769 85.1598L79.1465 76.6791C79.1399 76.6038 79.1958 76.5374 79.2711 76.531 79.3455 76.5264 79.4129 76.5803 79.4193 76.6556L80.1496 85.1363C80.1562 85.2116 80.1003 85.278 80.025 85.2844 80.0209 85.2849 80.017 85.2851 80.0131 85.2851Z" fill="#FFFFFF" transform="matrix(1 0 0 1.00144 517.115 125.58)"/><path d="M82.3865 84.2124C82.3037 84.2124 82.2336 84.1485 82.2275 84.0645L81.6797 76.6889C81.6733 76.601 81.7393 76.5243 81.8271 76.5177 81.9134 76.5138 81.9917 76.5771 81.9983 76.6652L82.5461 84.0408C82.5525 84.1286 82.4865 84.2053 82.3986 84.2119 82.3945 84.2122 82.3906 84.2124 82.3865 84.2124Z" fill="#FFFFFF" transform="matrix(1 0 0 1.00144 517.115 125.58)"/><path d="M84.7602 83.1395C84.6643 83.1395 84.5837 83.0646 84.578 82.9676L84.2129 76.6971C84.2072 76.5965 84.2838 76.5102 84.3845 76.5043 84.4792 76.4976 84.5714 76.5752 84.5773 76.6759L84.9425 82.9464C84.9482 83.047 84.8715 83.1333 84.7709 83.1393 84.7675 83.1395 84.7638 83.1395 84.7602 83.1395Z" fill="#FFFFFF" transform="matrix(1 0 0 1.00144 517.115 125.58)"/><path d="M87.134 82.067C87.024 82.067 86.9327 81.9798 86.9288 81.8689L86.7463 76.7037C86.7421 76.5903 86.8309 76.4951 86.9444 76.4912 87.0546 76.4828 87.153 76.5759 87.1569 76.6894L87.3394 81.8545C87.3435 81.968 87.2548 82.0631 87.1413 82.067 87.1388 82.067 87.1365 82.067 87.134 82.067Z" fill="#FFFFFF" transform="matrix(1 0 0 1.00144 517.115 125.58)"/><path d="M89.5077 80.9943C89.3817 80.9943 89.2794 80.8921 89.2794 80.7661L89.2794 76.706C89.2794 76.58 89.3817 76.4778 89.5077 76.4778 89.6336 76.4778 89.7359 76.58 89.7359 76.706L89.7359 80.7661C89.7359 80.8921 89.6339 80.9943 89.5077 80.9943Z" fill="#FFFFFF" transform="matrix(1 0 0 1.00144 517.115 125.58)"/><path d="M83.425 55.8539C83.3666 55.8539 83.3081 55.8315 83.2636 55.787L81.0986 53.622C81.0094 53.5327 81.0094 53.3885 81.0986 53.2993 81.1878 53.21 81.3321 53.21 81.4213 53.2993L83.5864 55.4643C83.6756 55.5535 83.6756 55.6978 83.5864 55.787 83.5419 55.8315 83.4834 55.8539 83.425 55.8539Z" fill="#FFC000" transform="matrix(1 0 0 1.00144 517.115 125.58)"/><path d="M99.5385 64.9075C99.4801 64.9075 99.4217 64.8851 99.3772 64.8406 99.2879 64.7514 99.2879 64.6071 99.3772 64.5179L101.542 62.3528C101.631 62.2636 101.776 62.2636 101.865 62.3528 101.954 62.4421 101.954 62.5863 101.865 62.6756L99.6999 64.8406C99.6554 64.8851 99.597 64.9075 99.5385 64.9075Z" fill="#505050" transform="matrix(1 0 0 1.00144 517.115 125.58)"/><path d="M98.9449 62.7009C98.8189 62.7009 98.7167 62.5986 98.7167 62.4727L98.7167 59.4109C98.7167 59.2849 98.8189 59.1827 98.9449 59.1827 99.0709 59.1827 99.1731 59.2849 99.1731 59.4109L99.1731 62.4727C99.1731 62.5986 99.0709 62.7009 98.9449 62.7009Z" fill="#FFFFFF" transform="matrix(1 0 0 1.00144 517.115 125.58)"/><path d="M78.0647 59.9621C78.0063 59.9621 77.9478 59.9397 77.9033 59.8952 77.8141 59.806 77.8141 59.6617 77.9033 59.5725L80.0684 57.4075C80.1576 57.3182 80.3018 57.3182 80.3911 57.4075 80.4803 57.4967 80.4803 57.6409 80.3911 57.7302L78.2261 59.8952C78.1815 59.9397 78.1231 59.9621 78.0647 59.9621Z" fill="#505050" transform="matrix(1 0 0 1.00144 517.115 125.58)"/><path d="M95.6323 54.8236C95.5739 54.8236 95.5155 54.8013 95.471 54.7568L93.3059 52.5917C93.2167 52.5025 93.2167 52.3582 93.3059 52.269 93.3952 52.1798 93.5394 52.1798 93.6286 52.269L95.7937 54.434C95.8829 54.5233 95.8829 54.6675 95.7937 54.7568 95.7489 54.8013 95.6907 54.8236 95.6323 54.8236Z" fill="#F1F1F1" transform="matrix(1 0 0 1.00144 517.115 125.58)"/><path d="M79.183 64.9832 76.1213 64.9832C75.9953 64.9832 75.8931 64.881 75.8931 64.755 75.8931 64.629 75.9953 64.5268 76.1213 64.5268L79.183 64.5268C79.309 64.5268 79.4113 64.629 79.4113 64.755 79.4113 64.881 79.3092 64.9832 79.183 64.9832Z" fill="#FFFFFF" transform="matrix(1 0 0 1.00144 517.115 125.58)"/><path d="M89.4962 56.691 86.4345 56.691C86.3085 56.691 86.2063 56.5888 86.2063 56.4628 86.2063 56.3368 86.3085 56.2346 86.4345 56.2346L89.4962 56.2346C89.6222 56.2346 89.7245 56.3368 89.7245 56.4628 89.7245 56.5888 89.6222 56.691 89.4962 56.691Z" fill="#FFFFFF" transform="matrix(1 0 0 1.00144 517.115 125.58)"/><path d="M90.7285 63.1574C90.6701 63.1574 90.6116 63.135 90.5671 63.0905 90.4779 63.0013 90.4779 62.857 90.5671 62.7678L92.7322 60.6027C92.8214 60.5135 92.9656 60.5135 93.0549 60.6027 93.1441 60.692 93.1441 60.8362 93.0549 60.9255L90.8898 63.0905C90.8453 63.135 90.7869 63.1574 90.7285 63.1574Z" fill="#505050" transform="matrix(1 0 0 1.00144 517.115 125.58)"/><path d="M91.6414 67.6047C91.583 67.6047 91.5246 67.5824 91.4801 67.5379L89.315 65.3728C89.2258 65.2836 89.2258 65.1394 89.315 65.0501 89.4043 64.9609 89.5485 64.9609 89.6378 65.0501L91.8028 67.2151C91.892 67.3044 91.892 67.4486 91.8028 67.5379 91.7583 67.5824 91.6998 67.6047 91.6414 67.6047Z" fill="#FFC000" transform="matrix(1 0 0 1.00144 517.115 125.58)"/><path d="M112.246 54.8236C112.187 54.8236 112.129 54.8013 112.084 54.7568 111.995 54.6675 111.995 54.5233 112.084 54.434L114.249 52.269C114.338 52.1798 114.483 52.1798 114.572 52.269 114.661 52.3582 114.661 52.5025 114.572 52.5917L112.407 54.7568C112.362 54.8013 112.304 54.8236 112.246 54.8236Z" fill="#505050" transform="matrix(1 0 0 1.00144 517.115 125.58)"/><path d="M132.618 32.3624C132.56 32.3624 132.501 32.3401 132.457 32.2956L130.292 30.1305C130.203 30.0413 130.203 29.8971 130.292 29.8078 130.381 29.7186 130.525 29.7186 130.615 29.8078L132.78 31.9728C132.869 32.0621 132.869 32.2063 132.78 32.2956 132.735 32.3401 132.677 32.3624 132.618 32.3624Z" fill="#737373" transform="matrix(1 0 0 1.00144 517.115 125.58)"/><path d="M125.308 29.5844C125.182 29.5844 125.08 29.4821 125.08 29.3561L125.08 26.2944C125.08 26.1684 125.182 26.0661 125.308 26.0661 125.435 26.0661 125.537 26.1684 125.537 26.2944L125.537 29.3561C125.537 29.4821 125.435 29.5844 125.308 29.5844Z" fill="#CFCFCF" transform="matrix(1 0 0 1.00144 517.115 125.58)"/><path d="M141.846 35.3425 138.784 35.3425C138.658 35.3425 138.556 35.2402 138.556 35.1143 138.556 34.9883 138.658 34.886 138.784 34.886L141.846 34.886C141.972 34.886 142.074 34.9883 142.074 35.1143 142.074 35.2402 141.972 35.3425 141.846 35.3425Z" fill="#CFCFCF" transform="matrix(1 0 0 1.00144 517.115 125.58)"/><path d="M122.369 41.2223C122.31 41.2223 122.252 41.1999 122.207 41.1554 122.118 41.0661 122.118 40.9219 122.207 40.8327L124.372 38.6676C124.461 38.5784 124.605 38.5784 124.695 38.6676 124.784 38.7569 124.784 38.9011 124.695 38.9904L122.53 41.1554C122.485 41.1999 122.427 41.2223 122.369 41.2223Z" fill="#FFC000" transform="matrix(1 0 0 1.00144 517.115 125.58)"/><path d="M109.05 44.3249C108.992 44.3249 108.934 44.3025 108.889 44.258 108.8 44.1688 108.8 44.0245 108.889 43.9353L111.054 41.7702C111.143 41.681 111.288 41.681 111.377 41.7702 111.466 41.8595 111.466 42.0037 111.377 42.093L109.212 44.258C109.167 44.3025 109.109 44.3249 109.05 44.3249Z" fill="#FFC000" transform="matrix(1 0 0 1.00144 517.115 125.58)"/><path d="M128.37 33.8724 125.308 33.8724C125.182 33.8724 125.08 33.7702 125.08 33.6442 125.08 33.5182 125.182 33.416 125.308 33.416L128.37 33.416C128.496 33.416 128.598 33.5182 128.598 33.6442 128.598 33.7702 128.496 33.8724 128.37 33.8724Z" fill="#FFC000" transform="matrix(1 0 0 1.00144 517.115 125.58)"/><path d="M97.9779 41.1296C97.9195 41.1296 97.861 41.1072 97.8165 41.0627 97.7273 40.9735 97.7273 40.8292 97.8165 40.74L99.9815 38.575C100.071 38.4857 100.215 38.4857 100.304 38.575 100.394 38.6642 100.394 38.8084 100.304 38.8977L98.1392 41.0627C98.0945 41.1072 98.0361 41.1296 97.9779 41.1296Z" fill="#505050" transform="matrix(1 0 0 1.00144 517.115 125.58)"/><path d="M88.9834 32.3624C88.925 32.3624 88.8666 32.3401 88.822 32.2956L86.657 30.1305C86.5678 30.0413 86.5678 29.8971 86.657 29.8078 86.7463 29.7186 86.8905 29.7186 86.9797 29.8078L89.1448 31.9728C89.234 32.0621 89.234 32.2063 89.1448 32.2956 89.1003 32.3401 89.0418 32.3624 88.9834 32.3624Z" fill="#737373" transform="matrix(1 0 0 1.00144 517.115 125.58)"/><path d="M81.6735 29.5844C81.5475 29.5844 81.4453 29.4821 81.4453 29.3561L81.4453 26.2944C81.4453 26.1684 81.5475 26.0661 81.6735 26.0661 81.7995 26.0661 81.9018 26.1684 81.9018 26.2944L81.9018 29.3561C81.9018 29.4821 81.7995 29.5844 81.6735 29.5844Z" fill="#CFCFCF" transform="matrix(1 0 0 1.00144 517.115 125.58)"/><path d="M98.2109 35.3425 95.1491 35.3425C95.0232 35.3425 94.9209 35.2402 94.9209 35.1143 94.9209 34.9883 95.0232 34.886 95.1491 34.886L98.2109 34.886C98.3369 34.886 98.4391 34.9883 98.4391 35.1143 98.4391 35.2402 98.3369 35.3425 98.2109 35.3425Z" fill="#CFCFCF" transform="matrix(1 0 0 1.00144 517.115 125.58)"/><path d="M108.379 20.8038C108.32 20.8038 108.262 20.7814 108.217 20.7369L106.052 18.5719C105.963 18.4826 105.963 18.3384 106.052 18.2491 106.141 18.1599 106.286 18.1599 106.375 18.2491L108.54 20.4142C108.629 20.5034 108.629 20.6476 108.54 20.7369 108.495 20.7814 108.437 20.8038 108.379 20.8038Z" fill="#737373" transform="matrix(1 0 0 1.00144 517.115 125.58)"/><path d="M119.432 20.1321C119.305 20.1321 119.203 20.0298 119.203 19.9038L119.203 16.8418C119.203 16.7159 119.305 16.6136 119.432 16.6136 119.558 16.6136 119.66 16.7159 119.66 16.8418L119.66 19.9036C119.66 20.0298 119.558 20.1321 119.432 20.1321Z" fill="#CFCFCF" transform="matrix(1 0 0 1.00144 517.115 125.58)"/><path d="M109.846 35.1955C109.72 35.1955 109.618 35.0933 109.618 34.9673L109.618 31.9055C109.618 31.7795 109.72 31.6773 109.846 31.6773 109.972 31.6773 110.074 31.7795 110.074 31.9055L110.074 34.9673C110.074 35.0933 109.972 35.1955 109.846 35.1955Z" fill="#CFCFCF" transform="matrix(1 0 0 1.00144 517.115 125.58)"/><path d="M117.606 23.7838 114.544 23.7838C114.418 23.7838 114.316 23.6816 114.316 23.5556 114.316 23.4296 114.418 23.3273 114.544 23.3273L117.606 23.3273C117.732 23.3273 117.834 23.4296 117.834 23.5556 117.834 23.6816 117.732 23.7838 117.606 23.7838Z" fill="#CFCFCF" transform="matrix(1 0 0 1.00144 517.115 125.58)"/><path d="M78.7336 41.2223C78.6752 41.2223 78.6168 41.1999 78.5723 41.1554 78.483 41.0661 78.483 40.9219 78.5723 40.8327L80.7373 38.6676C80.8266 38.5784 80.9708 38.5784 81.06 38.6676 81.1493 38.7569 81.1493 38.9011 81.06 38.9904L78.895 41.1554C78.8505 41.1999 78.7921 41.2223 78.7336 41.2223Z" fill="#FFC000" transform="matrix(1 0 0 1.00144 517.115 125.58)"/><path d="M84.7353 33.8724 81.6735 33.8724C81.5475 33.8724 81.4453 33.7702 81.4453 33.6442 81.4453 33.5182 81.5475 33.416 81.6735 33.416L84.7353 33.416C84.8613 33.416 84.9635 33.5182 84.9635 33.6442 84.9635 33.7702 84.8613 33.8724 84.7353 33.8724Z" fill="#FFC000" transform="matrix(1 0 0 1.00144 517.115 125.58)"/></g></svg>