<svg width="134" height="134" xmlns="http://www.w3.org/2000/svg" xmlns:xlink="http://www.w3.org/1999/xlink" overflow="hidden"><defs><clipPath id="clip0"><rect x="329" y="292" width="134" height="134"/></clipPath></defs><g clip-path="url(#clip0)" transform="translate(-329 -292)"><path d="M51.5909 110.976C53.851 116.67 56.9374 118.595 58.049 119.128 58.2309 119.319 58.4183 119.505 58.6124 119.683 59.2261 120.25 59.9001 120.752 60.6153 121.184 61.3304 121.617 62.0854 121.981 62.8604 122.289 63.6356 122.597 64.4306 122.85 65.2339 123.064L65.3135 122.746C64.5204 122.535 63.7376 122.287 62.9765 121.986 62.2156 121.684 61.4768 121.328 60.7786 120.906 60.0804 120.485 59.424 119.997 58.8261 119.446 58.7279 119.356 58.6319 119.263 58.5369 119.17 58.8719 118.447 60.2594 114.811 57.7639 108.526 54.9605 101.464 49.6013 96.9645 49.6013 96.9645 49.6013 96.9645 48.7873 103.915 51.5909 110.976Z" fill="#D1D1D1" transform="matrix(1.01024 0 0 1 319.769 284.504)"/><path d="M38.1196 79.0514C34.4183 84.2865 30.8243 84.5158 30.8243 84.5158 30.8243 84.5158 29.842 81.0512 33.5435 75.8161 37.245 70.5809 42.5335 67.9545 42.5335 67.9545 42.5335 67.9545 41.8211 73.8162 38.1196 79.0514Z" fill="#F1F1F1" transform="matrix(1.01024 0 0 1 319.769 284.504)"/><path d="M38.9338 79.772C41.445 82.491 46.1611 97.5798 41.5172 103.179 41.3293 103.406 41.2245 103.688 41.2292 103.982 41.2575 105.718 40.6973 107.456 39.6753 108.861 39.5606 108.773 39.9305 109.058 39.4182 108.665 38.9065 108.271 39.2768 108.555 39.1628 108.467 40.1778 107.218 40.7784 105.641 40.851 104.033 40.8633 103.76 40.7417 103.5 40.532 103.325 34.8601 98.5864 36.9561 82.8868 38.9338 79.772Z" fill="#E5E5E5" transform="matrix(1.01024 0 0 1 319.769 284.504)"/><path d="M17.1631 105.79C19.2172 108.869 32.779 116.993 39.3113 113.792 39.5755 113.662 39.8747 113.627 40.1596 113.7 41.8407 114.135 43.6611 113.998 45.2662 113.334 45.2082 113.202 45.3983 113.628 45.1366 113.038 44.8739 112.448 45.063 112.875 45.0041 112.744 43.552 113.437 41.8777 113.651 40.2974 113.344 40.0292 113.292 39.8053 113.113 39.6841 112.868 36.4082 106.243 20.6551 104.598 17.1631 105.79Z" fill="#D1D1D1" transform="matrix(1.01024 0 0 1 319.769 284.504)"/><path d="M36.6539 112.308 36.5859 112.451C33.7817 111.115 30.8341 109.989 27.8254 109.104L27.87 108.952C30.887 109.84 33.8422 110.969 36.6539 112.308Z" fill="#E6E6E6" transform="matrix(1.01024 0 0 1 319.769 284.504)"/><path d="M46.5893 123.179C53.7911 120.758 57.39 123.052 57.39 123.052 57.39 123.052 55.9073 127.054 48.7055 129.475 41.5037 131.896 34.6072 130.711 34.6072 130.711 34.6072 130.711 39.3875 125.6 46.5893 123.179Z" fill="#D1D1D1" transform="matrix(1.01024 0 0 1 319.769 284.504)"/><path d="M53.2712 124.469C53.2022 124.484 46.3148 125.988 39.7494 128.6L39.6909 128.453C46.2688 125.836 53.1687 124.329 53.2377 124.314L53.2712 124.469Z" fill="#E6E6E6" transform="matrix(1.01024 0 0 1 319.769 284.504)"/><path d="M40.8865 51.5743C35.1934 53.8344 33.2676 56.9208 32.7348 58.0324 32.544 58.2143 32.3582 58.4017 32.1795 58.5958 31.6132 59.2095 31.1112 59.8835 30.6789 60.5987 30.2457 61.3138 29.8817 62.0688 29.5739 62.8438 29.2658 63.619 29.0133 64.414 28.7987 65.2173L29.1169 65.2969C29.3278 64.5038 29.5759 63.7209 29.8775 62.9599 30.1789 62.199 30.5346 61.4602 30.9565 60.762 31.3779 60.0638 31.8661 59.4074 32.4169 58.8095 32.5071 58.7113 32.5996 58.6153 32.6933 58.5203 33.4164 58.8553 37.0518 60.2428 43.3374 57.7473 50.3991 54.9439 54.8985 49.5847 54.8985 49.5847 54.8985 49.5847 47.9482 48.7708 40.8865 51.5743Z" fill="#D1D1D1" transform="matrix(1.01024 0 0 1 319.769 284.504)"/><path d="M72.8116 38.1032C67.5764 34.4018 67.3472 30.8079 67.3472 30.8079 67.3472 30.8079 70.8118 29.8258 76.0469 33.5271 81.2821 37.2284 83.9084 42.517 83.9084 42.517 83.9084 42.517 78.0468 41.8045 72.8116 38.1032Z" fill="#F1F1F1" transform="matrix(1.01024 0 0 1 319.769 284.504)"/><path d="M72.091 38.9172C69.372 41.4284 54.2832 46.1445 48.6839 41.5006 48.4573 41.3127 48.175 41.2079 47.8807 41.2126 46.1446 41.2409 44.4071 40.6807 43.0025 39.6587 43.0897 39.544 42.8051 39.9139 43.1979 39.4016 43.5916 38.8898 43.3076 39.2602 43.3959 39.1462 44.6448 40.1612 46.2221 40.7618 47.8303 40.8344 48.1031 40.8467 48.3629 40.7251 48.5381 40.5154 53.2766 34.8435 68.9762 36.9396 72.091 38.9172Z" fill="#E5E5E5" transform="matrix(1.01024 0 0 1 319.769 284.504)"/><path d="M46.0727 17.1467C42.9938 19.2008 34.8701 32.7625 38.0711 39.2948 38.2006 39.559 38.2363 39.8582 38.1626 40.1432 37.7279 41.8242 37.8649 43.6446 38.529 45.2498 38.6609 45.1917 38.2346 45.3818 38.8249 45.1201 39.4147 44.8575 38.988 45.0466 39.1194 44.9876 38.4257 43.5355 38.2119 41.8612 38.5186 40.2809 38.5706 40.0127 38.7497 39.7888 38.9947 39.6677 45.6196 36.3917 47.2645 20.6385 46.0727 17.1467Z" fill="#D1D1D1" transform="matrix(1.01024 0 0 1 319.769 284.504)"/><path d="M39.5551 36.6375 39.4123 36.5695C40.748 33.7652 41.8741 30.8177 42.7593 27.809L42.9109 27.8536C42.0233 30.8704 40.8943 33.8256 39.5551 36.6375Z" fill="#E6E6E6" transform="matrix(1.01024 0 0 1 319.769 284.504)"/><path d="M28.6838 46.5728C31.1047 53.7747 28.8112 57.3735 28.8112 57.3735 28.8112 57.3735 24.8094 55.8909 22.3885 48.6891 19.9675 41.4873 21.1526 34.5908 21.1526 34.5908 21.1526 34.5908 26.2626 39.3709 28.6838 46.5728Z" fill="#D1D1D1" transform="matrix(1.01024 0 0 1 319.769 284.504)"/><path d="M27.3942 53.2547C27.3793 53.1858 25.8749 46.2983 23.2626 39.733L23.4095 39.6745C26.0269 46.2523 27.5338 53.1523 27.5489 53.2212L27.3942 53.2547Z" fill="#E6E6E6" transform="matrix(1.01024 0 0 1 319.769 284.504)"/><path d="M100.307 40.8873C98.0474 35.1942 94.961 33.2684 93.8494 32.7356 93.6675 32.5448 93.4801 32.359 93.2859 32.1803 92.6723 31.614 91.9983 31.112 91.2831 30.6796 90.568 30.2465 89.813 29.8825 89.038 29.5746 88.2628 29.2666 87.4678 29.0141 86.6645 28.7995L86.5849 29.1177C87.3779 29.3286 88.1608 29.5767 88.9219 29.8783 89.6828 30.1796 90.4216 30.5354 91.1197 30.9573 91.818 31.3787 92.4744 31.8669 93.0723 32.4176 93.1705 32.5079 93.2665 32.6004 93.3615 32.694 93.0265 33.4172 91.639 37.0526 94.1345 43.3382 96.9379 50.3999 102.297 54.8993 102.297 54.8993 102.297 54.8993 103.111 47.9492 100.307 40.8873Z" fill="#D1D1D1" transform="matrix(1.01024 0 0 1 319.769 284.504)"/><path d="M113.779 72.8124C117.48 67.5772 121.074 67.3479 121.074 67.3479 121.074 67.3479 122.056 70.8125 118.355 76.0477 114.654 81.2829 109.365 83.9092 109.365 83.9092 109.365 83.9092 110.077 78.0476 113.779 72.8124Z" fill="#F1F1F1" transform="matrix(1.01024 0 0 1 319.769 284.504)"/><path d="M112.965 72.0918C110.453 69.3728 105.737 54.284 110.381 48.6847 110.569 48.4581 110.674 48.1758 110.669 47.8815 110.641 46.1454 111.201 44.4079 112.223 43.0032 112.338 43.0905 111.968 42.8059 112.48 43.1987 112.992 43.5924 112.622 43.3084 112.736 43.3967 111.721 44.6456 111.12 46.2229 111.047 47.8311 111.035 48.1038 111.157 48.3637 111.366 48.5389 117.038 53.2773 114.942 68.977 112.965 72.0918Z" fill="#E5E5E5" transform="matrix(1.01024 0 0 1 319.769 284.504)"/><path d="M134.735 46.0735C132.681 42.9945 119.119 34.8708 112.587 38.0718 112.323 38.2014 112.024 38.2371 111.739 38.1634 110.058 37.7287 108.237 37.8656 106.632 38.5298 106.69 38.6617 106.5 38.2354 106.762 38.8256 107.024 39.4155 106.835 38.9888 106.894 39.1202 108.346 38.4265 110.021 38.2127 111.601 38.5194 111.869 38.5714 112.093 38.7505 112.214 38.9955 115.49 45.6204 131.243 47.2653 134.735 46.0735Z" fill="#D1D1D1" transform="matrix(1.01024 0 0 1 319.769 284.504)"/><path d="M115.244 39.5559 115.312 39.4131C118.117 40.7488 121.064 41.8748 124.073 42.76L124.028 42.9117C121.012 42.0243 118.056 40.8951 115.244 39.5559Z" fill="#E6E6E6" transform="matrix(1.01024 0 0 1 319.769 284.504)"/><path d="M105.309 28.6845C98.1073 31.1055 94.5084 28.812 94.5084 28.812 94.5084 28.812 95.9911 24.8102 103.193 22.3893 110.395 19.9683 117.291 21.1533 117.291 21.1533 117.291 21.1533 112.511 26.2634 105.309 28.6845Z" fill="#D1D1D1" transform="matrix(1.01024 0 0 1 319.769 284.504)"/><path d="M98.6272 27.395C98.6962 27.3801 105.584 25.8757 112.149 23.2634L112.207 23.4103C105.63 26.0277 98.7297 27.5346 98.6607 27.5497L98.6272 27.395Z" fill="#E6E6E6" transform="matrix(1.01024 0 0 1 319.769 284.504)"/><path d="M110.881 100.31C116.575 98.05 118.5 94.9637 119.033 93.8521 119.224 93.6702 119.41 93.4828 119.588 93.2886 120.155 92.6749 120.657 92.001 121.089 91.2858 121.522 90.5707 121.886 89.8157 122.194 89.0407 122.502 88.2655 122.755 87.4704 122.969 86.6672L122.651 86.5876C122.44 87.3806 122.192 88.1635 121.89 88.9246 121.589 89.6855 121.233 90.4243 120.811 91.1224 120.39 91.8207 119.902 92.4771 119.351 93.075 119.261 93.1732 119.168 93.2692 119.075 93.3642 118.352 93.0291 114.716 91.6417 108.431 94.1372 101.369 96.9406 96.8695 102.3 96.8695 102.3 96.8695 102.3 103.82 103.114 110.881 100.31Z" fill="#D1D1D1" transform="matrix(1.01024 0 0 1 319.769 284.504)"/><path d="M78.9565 113.781C84.1917 117.483 84.4209 121.077 84.4209 121.077 84.4209 121.077 80.9563 122.059 75.7212 118.357 70.486 114.656 67.8596 109.367 67.8596 109.367 67.8596 109.367 73.7213 110.08 78.9565 113.781Z" fill="#F1F1F1" transform="matrix(1.01024 0 0 1 319.769 284.504)"/><path d="M79.6771 112.967C82.3961 110.456 97.4849 105.74 103.084 110.384 103.311 110.572 103.593 110.677 103.887 110.672 105.623 110.644 107.361 111.204 108.766 112.226 108.678 112.34 108.963 111.971 108.57 112.483 108.176 112.995 108.46 112.624 108.372 112.738 107.123 111.723 105.546 111.123 103.938 111.05 103.665 111.038 103.405 111.159 103.23 111.369 98.4914 117.041 82.7919 114.945 79.6771 112.967Z" fill="#E5E5E5" transform="matrix(1.01024 0 0 1 319.769 284.504)"/><path d="M105.695 134.738C108.774 132.684 116.898 119.122 113.697 112.59 113.568 112.325 113.532 112.026 113.605 111.741 114.04 110.06 113.903 108.24 113.239 106.635 113.107 106.693 113.534 106.503 112.943 106.764 112.353 107.027 112.78 106.838 112.649 106.897 113.342 108.349 113.556 110.023 113.25 111.604 113.198 111.872 113.018 112.096 112.773 112.217 106.148 115.493 104.503 131.246 105.695 134.738Z" fill="#D1D1D1" transform="matrix(1.01024 0 0 1 319.769 284.504)"/><path d="M112.213 115.247 112.356 115.315C111.02 118.119 109.894 121.067 109.009 124.075L108.857 124.031C109.745 121.014 110.874 118.059 112.213 115.247Z" fill="#E6E6E6" transform="matrix(1.01024 0 0 1 319.769 284.504)"/><path d="M123.084 105.312C120.663 98.1098 122.957 94.511 122.957 94.511 122.957 94.511 126.959 95.9936 129.38 103.195 131.801 110.397 130.616 117.294 130.616 117.294 130.616 117.294 125.505 112.514 123.084 105.312Z" fill="#D1D1D1" transform="matrix(1.01024 0 0 1 319.769 284.504)"/><path d="M124.374 98.6298C124.389 98.6987 125.893 105.586 128.505 112.151L128.359 112.21C125.741 105.632 124.234 98.7322 124.219 98.6633L124.374 98.6298Z" fill="#E6E6E6" transform="matrix(1.01024 0 0 1 319.769 284.504)"/><path d="M66.2247 112.996C66.2247 115.289 65.074 117.148 63.6544 117.148 62.2349 117.148 61.0842 115.289 61.0842 112.996 61.0842 110.703 62.2349 108.844 63.6544 108.844 65.074 108.844 66.2247 110.703 66.2247 112.996Z" fill="#FFC000" transform="matrix(0.998975 -0.147462 0.148973 0.988846 303.637 295.128)"/><path d="M37.7798 85.5875C37.7798 86.771 36.232 87.7305 34.3227 87.7305 32.4134 87.7305 30.8656 86.771 30.8656 85.5875 30.8656 84.404 32.4134 83.4445 34.3227 83.4445 36.232 83.4445 37.7798 84.404 37.7798 85.5875Z" fill="#FFC000" transform="matrix(0.45908 -0.888395 0.897495 0.454425 261.799 361.506)"/><path d="M43.0578 63.6378C43.0578 65.0574 41.1989 66.2081 38.9059 66.2081 36.6128 66.2081 34.7539 65.0574 34.7539 63.6378 34.7539 62.2183 36.6128 61.0676 38.9059 61.0676 41.1989 61.0676 43.0578 62.2183 43.0578 63.6378Z" fill="#FFC000" transform="matrix(0.998975 -0.147462 0.148973 0.988846 310.718 290.938)"/><path d="M68.7441 34.3061C68.7441 36.2154 67.7847 37.7632 66.6012 37.7632 65.4176 37.7632 64.4582 36.2154 64.4582 34.3061 64.4582 32.3967 65.4176 30.8489 66.6012 30.8489 67.7847 30.8489 68.7441 32.3967 68.7441 34.3061Z" fill="#FFC000" transform="matrix(0.45908 -0.888395 0.897495 0.454425 325.544 362.314)"/><path d="M90.8532 38.9066C90.8532 41.1997 89.7025 43.0586 88.283 43.0586 86.8635 43.0586 85.7127 41.1997 85.7127 38.9067 85.7127 36.6136 86.8635 34.7547 88.283 34.7547 89.7025 34.7547 90.8532 36.6136 90.8532 38.9066Z" fill="#FFC000" transform="matrix(0.998975 -0.147462 0.148973 0.988846 314.948 297.95)"/><path d="M121.359 66.6019C121.359 67.7855 119.811 68.7449 117.902 68.7449 115.992 68.7449 114.444 67.7855 114.444 66.6019 114.444 65.4184 115.992 64.459 117.902 64.459 119.811 64.459 121.359 65.4184 121.359 66.6019Z" fill="#FFC000" transform="matrix(0.45908 -0.888395 0.897495 0.454425 324.723 425.439)"/><path d="M117.053 88.2857C117.053 89.7052 115.194 90.8559 112.901 90.8559 110.608 90.8559 108.749 89.7052 108.749 88.2857 108.749 86.8662 110.608 85.7154 112.901 85.7154 115.194 85.7154 117.053 86.8662 117.053 88.2857Z" fill="#FFC000" transform="matrix(0.998975 -0.147462 0.148973 0.988846 307.863 302.121)"/><path d="M87.6354 117.904C87.6354 119.813 86.6759 121.361 85.4924 121.361 84.3089 121.361 83.3494 119.813 83.3494 117.904 83.3494 115.995 84.3089 114.447 85.4924 114.447 86.6759 114.447 87.6354 115.995 87.6354 117.904Z" fill="#FFC000" transform="matrix(0.45908 -0.888395 0.897495 0.454425 260.888 424.526)"/><path d="M61.1863 119.783 58.8666 95.9011C58.8666 95.9011 56.1569 102.353 56.8914 109.915 57.4681 115.852 59.7889 118.575 60.7597 119.47 62.4966 125.572 68.8214 126.748 74.2585 124.953L74.1464 124.645C69.0092 126.335 63.0339 125.351 61.1863 119.783Z" fill="#737373" transform="matrix(1.01024 0 0 1 319.769 284.504)"/><path d="M32.0797 61.1697 55.9617 58.8501C55.9617 58.8501 49.5102 56.1404 41.9479 56.8749 36.0105 57.4516 33.2885 59.7725 32.3927 60.7432 26.2909 62.4801 25.1149 68.8049 26.9097 74.242L27.2179 74.1299C25.5277 68.9926 26.5117 63.0173 32.0797 61.1697Z" fill="#737373" transform="matrix(1.01024 0 0 1 319.769 284.504)"/><path d="M90.7122 32.0805 93.0318 55.9625C93.0318 55.9625 95.7415 49.511 95.007 41.9487 94.4303 36.0113 92.1095 33.2892 91.1387 32.3934 89.4018 26.2917 83.077 25.1157 77.6399 26.9105L77.752 27.2187C82.8891 25.5284 88.8645 26.5126 90.7122 32.0805Z" fill="#737373" transform="matrix(1.01024 0 0 1 319.769 284.504)"/><path d="M119.688 90.7148 95.8062 93.0344C95.8062 93.0344 102.258 95.7441 109.82 95.0095 115.757 94.4329 118.48 92.112 119.375 91.1413 125.477 89.4044 126.653 83.0795 124.858 77.6424L124.55 77.7546C126.24 82.8918 125.256 88.8672 119.688 90.7148Z" fill="#737373" transform="matrix(1.01024 0 0 1 319.769 284.504)"/><path d="M123.389 74.2395C123.37 71.3265 123.088 68.4133 122.539 65.5488 122.047 62.9762 121.338 60.4436 120.426 57.9856 121.407 58.1513 122.239 58.5022 123.1 59.0555 123.25 59.1518 123.348 59.3125 123.354 59.4905 123.618 66.8434 136.814 75.3833 140.595 75.8972 140.049 72.0978 131.558 58.7348 123.997 58.9172 123.803 58.9219 123.61 58.8632 123.454 58.7469 122.486 58.0264 121.35 57.5334 120.166 57.3009 120.075 57.0685 119.984 56.8365 119.89 56.6055 119.574 55.8299 119.237 55.0629 118.88 54.3052 123.416 53.2543 129.258 52.8904 131.896 48.5248L131.607 48.3959C129.532 51.5552 125.715 52.394 122.05 53.0182 122.936 52.4782 123.721 51.7704 124.342 50.9345L124.097 50.7354C123.157 51.9236 121.867 52.8199 120.432 53.289 119.992 53.3638 119.557 53.4402 119.133 53.5218 118.792 53.5876 118.452 53.4159 118.295 53.1058 116.06 48.6861 113.131 44.6128 109.643 41.0829 107.33 38.7404 104.749 36.6884 101.993 34.8882 103.561 34.3949 105.284 34.4237 106.84 34.969L106.945 34.6705C105.175 33.9434 103.156 33.874 101.339 34.4675 100.332 33.8307 99.3032 33.2265 98.2564 32.6531 103.449 30.64 122.371 32.0595 127.133 31.657 124.326 29.4689 108.917 26.13 103.668 31.2624 103.507 31.4197 103.293 31.51 103.068 31.5165 101.501 31.5614 99.9558 31.6771 98.3491 32.0098 97.8377 32.1158 97.0361 32.0005 96.5706 31.7639 95.791 31.3677 95.0032 30.9875 94.2086 30.6229 91.5072 29.3835 86.9154 28.2483 85.4848 27.9097 85.3713 27.8828 85.3719 27.7219 85.4855 27.6947 86.5122 27.448 89.0894 26.9415 90.3957 27.6222 90.3957 27.6222 90.5211 27.6273 90.5579 27.506 90.5948 27.3847 90.4902 27.3185 90.4902 27.3185 89.8237 27.0699 89.1234 26.9167 88.4143 26.8566 90.3984 26.2302 92.2333 25.2927 93.6743 23.6039 93.8195 23.4565 93.581 23.2376 93.4452 23.3858 92.7009 24.163 91.8435 24.8229 90.912 25.3434 88.7513 26.5449 86.0484 26.8819 83.5185 27.2946 83.0473 27.3714 82.568 27.3776 82.095 27.3134 81.8417 27.2791 81.5882 27.247 81.3344 27.2168 81.886 26.9412 82.4633 26.6186 83.0666 26.2373 88.4863 22.812 91.3829 17.6665 91.3829 17.6665 91.3829 17.6665 85.4923 18.0746 80.0724 21.5 74.8141 24.8234 74.2669 28.2892 74.2389 28.4929 71.3258 28.5119 68.4126 28.7936 65.5481 29.3427 62.9755 29.8349 60.4429 30.5432 57.985 31.4559 58.1507 30.4742 58.5018 29.6426 59.0549 28.7815 59.1512 28.6317 59.3117 28.5335 59.4897 28.5272 66.8426 28.2642 75.3826 15.0676 75.8965 11.2869 72.0972 11.8325 58.7342 20.3232 58.9165 27.8843 58.9213 28.0791 58.8626 28.2713 58.7462 28.4276 58.0258 29.3952 57.5327 30.5316 57.3003 31.7159 57.0678 31.8063 56.8359 31.8979 56.6048 31.9921 55.8292 32.3077 55.0623 32.6449 54.3044 33.0015 53.2535 28.466 52.8896 22.6231 48.524 19.9854L48.3951 20.2742C51.5544 22.3497 52.3932 26.1668 53.0174 29.8318 52.4774 28.9451 51.7696 28.1602 50.9337 27.5392L50.7346 27.7849C51.9228 28.7242 52.8191 30.015 53.2883 31.4493 53.363 31.8901 53.4393 32.3242 53.521 32.7483 53.5868 33.0895 53.4151 33.4298 53.105 33.5867 48.6853 35.8215 44.612 38.7507 41.0823 42.2387 38.7398 44.5516 36.6877 47.1323 34.8876 49.8888 34.3944 48.3208 34.423 46.5974 34.9684 45.0411L34.6699 44.9365C33.9428 46.7063 33.8734 48.7251 34.4668 50.5423 33.83 51.5493 33.2257 52.5783 32.6525 53.6251 30.6393 48.4321 32.0588 29.5106 31.6564 24.7482 29.4682 27.555 26.1293 42.9648 31.2617 48.2137 31.4191 48.3747 31.5092 48.5887 31.5157 48.8135 31.5606 50.3798 31.6763 51.9255 32.0092 53.5322 32.1151 54.0436 31.9999 54.845 31.7633 55.3104 31.367 56.09 30.9869 56.8778 30.6222 57.6724 29.3825 60.3745 28.247 64.9678 27.9089 66.3973 27.882 66.5107 27.7215 66.51 27.6943 66.3966 27.4478 65.3707 26.9386 62.7949 27.6197 61.4882 27.6197 61.4882 27.6403 61.365 27.5138 61.3234 27.3873 61.2818 27.3178 61.3908 27.3178 61.3908 27.0693 62.0573 26.916 62.7576 26.8559 63.4667 26.2296 61.4826 25.292 59.6477 23.6032 58.2067 23.4559 58.0615 23.237 58.3 23.3852 58.4358 24.1624 59.1801 24.8222 60.0375 25.3428 60.969 26.5441 63.1297 26.8812 65.8323 27.294 68.3619 27.371 68.8339 27.3767 69.3141 27.3125 69.788 27.2802 70.0262 27.25 70.2646 27.2214 70.5034 26.9484 69.9591 26.6297 69.3899 26.2539 68.7955 22.8286 63.3758 17.6831 60.4792 17.6831 60.4792 17.6831 60.4792 18.0912 66.3698 21.5166 71.7896 24.84 77.0479 28.3058 77.5952 28.5095 77.6231 28.5285 80.5362 28.8103 83.4494 29.3593 86.3139 29.8515 88.8865 30.5598 91.4191 31.4725 93.877 30.491 93.7113 29.6594 93.3604 28.7984 92.8073 28.6483 92.711 28.5503 92.5502 28.5438 92.372 28.2807 85.0202 15.0844 76.4805 11.3037 75.9666 11.8492 79.766 20.3399 93.1289 27.901 92.9466 28.0958 92.9419 28.2881 93.0005 28.4443 93.1169 29.4119 93.8373 30.5484 94.3304 31.7326 94.5628 31.8231 94.7953 31.9146 95.0273 32.0089 95.2583 32.3245 96.0339 32.6616 96.8008 33.0182 97.5586 28.4828 98.6095 22.6399 98.9734 20.0022 103.339L20.2909 103.468C22.3665 100.309 26.1836 99.4697 29.8485 98.8456 28.9619 99.3856 28.1769 100.093 27.556 100.929 27.556 100.929 27.5166 101.054 27.6029 101.119 27.6893 101.185 27.8017 101.128 27.8017 101.128 28.741 99.9402 30.0318 99.0439 31.466 98.5747 31.9069 98.4999 32.3409 98.4236 32.765 98.342 33.1063 98.2762 33.4466 98.4479 33.6034 98.758 35.8383 103.178 38.7675 107.251 42.2555 110.781 44.5684 113.123 47.1491 115.175 49.9056 116.976 48.3376 117.469 46.6141 117.44 45.0578 116.895L44.9533 117.193C46.7231 117.92 48.7419 117.99 50.5591 117.396 51.5661 118.033 52.595 118.637 53.6418 119.211 48.4489 121.224 29.5274 119.804 24.765 120.207 27.5716 122.395 42.9813 125.734 48.2303 120.602 48.3913 120.444 48.6054 120.354 48.8306 120.347 50.3967 120.303 51.9421 120.187 53.5488 119.854 54.0604 119.748 54.8619 119.863 55.3275 120.1 56.1069 120.496 56.8947 120.876 57.6893 121.241 60.3919 122.481 64.986 123.616 66.4148 123.954 66.5281 123.981 66.5273 124.142 66.4142 124.169 65.3886 124.415 62.81 124.923 61.503 124.242 61.503 124.242 61.3642 124.235 61.3324 124.351 61.3006 124.467 61.4078 124.545 61.4078 124.545 62.0744 124.794 62.7747 124.947 63.4838 125.007 61.4997 125.634 59.6648 126.571 58.2238 128.26 58.0786 128.407 58.3171 128.626 58.4529 128.478 59.1972 127.701 60.0546 127.041 60.9861 126.52 63.1469 125.319 65.8497 124.982 68.3796 124.569 68.8529 124.492 69.3342 124.487 69.8094 124.551 70.0369 124.582 70.2648 124.611 70.4928 124.638 69.9234 124.92 69.3261 125.252 68.7012 125.647 63.2815 129.073 60.3849 134.218 60.3849 134.218 60.3849 134.218 66.2755 133.81 71.6954 130.385 76.9536 127.061 77.5009 123.595 77.5289 123.392 80.4419 123.373 83.3552 123.091 86.2197 122.542 88.7922 122.05 91.3248 121.341 93.7828 120.429 93.6171 121.41 93.266 122.242 92.7129 123.103 92.6166 123.253 92.4561 123.351 92.278 123.357 84.9252 123.62 76.3852 136.817 75.8712 140.598 79.6706 140.052 93.0336 131.561 92.8512 124 92.8465 123.806 92.9052 123.613 93.0216 123.457 93.742 122.489 94.235 121.353 94.4675 120.169 94.6999 120.078 94.9319 119.987 95.1629 119.893 95.9386 119.577 96.7055 119.24 97.4632 118.883 98.5142 123.419 98.878 129.261 103.244 131.899L103.373 131.61C100.213 129.535 99.3744 125.718 98.7502 122.053 99.2903 122.94 99.998 123.724 100.834 124.345L101.033 124.1C99.8448 123.16 98.9485 121.87 98.4794 120.435 98.4046 119.995 98.3282 119.56 98.2466 119.136 98.1808 118.795 98.3526 118.455 98.6626 118.298 103.082 116.063 107.156 113.134 110.685 109.646 113.028 107.333 115.08 104.752 116.88 101.996 117.373 103.564 117.345 105.287 116.799 106.843L117.098 106.948C117.825 105.178 117.894 103.159 117.301 101.342 117.938 100.335 118.542 99.3062 119.115 98.2594 121.128 103.452 119.709 122.374 120.111 127.136 122.3 124.329 125.638 108.92 120.506 103.671 120.349 103.51 120.259 103.296 120.252 103.071 120.207 101.505 120.091 99.9588 119.759 98.3519 119.653 97.8405 119.768 97.0393 120.004 96.5738 120.401 95.7942 120.781 95.0064 121.146 94.2118 122.385 91.5105 123.52 86.9189 123.859 85.4882 123.885 85.3745 124.046 85.3752 124.074 85.4888 124.32 86.5155 124.827 89.0928 124.146 90.399 124.146 90.399 124.14 90.528 124.259 90.5638 124.378 90.5995 124.45 90.4934 124.45 90.4934 124.698 89.8269 124.852 89.1265 124.912 88.4176 125.538 90.4017 126.476 92.2366 128.164 93.6776 128.312 93.8228 128.531 93.5843 128.382 93.4485 127.605 92.7042 126.945 91.8468 126.425 90.9153 125.224 88.7546 124.886 86.052 124.474 83.5223 124.397 83.055 124.389 82.5795 124.453 82.1105 124.496 81.7914 124.535 81.4715 124.572 81.1515 124.867 81.7577 125.22 82.3974 125.644 83.068 129.069 88.4877 134.215 91.3843 134.215 91.3843 134.215 91.3843 133.807 85.4937 130.381 80.0738 127.058 74.8148 123.592 74.2675 123.389 74.2395ZM122.551 84.9757 122.55 84.9831C122.461 85.466 122.175 85.8926 121.756 86.1488 121.399 86.3672 121.028 86.563 120.65 86.7404 119.196 87.4135 117.587 87.7418 115.987 87.7478 115.776 87.739 115.775 88.0666 115.982 88.0641 117.854 88.108 119.766 87.7144 121.445 86.8691 121.769 86.7064 122.136 86.9902 122.052 87.3425 121.534 89.5206 120.857 91.6631 120.026 93.7471 118.428 97.7653 116.254 101.561 113.601 104.997 112.18 105.694 110.55 105.915 108.964 106.056 108.423 106.104 107.884 105.935 107.473 105.581 101.897 100.775 87.1039 103.469 83.9148 105.705 83.9148 105.705 89.9741 109.204 97.5687 109.427 102.809 109.581 105.88 108.034 107.281 107.061 107.841 106.671 108.502 106.456 109.183 106.418 110.448 106.347 111.735 106.22 112.934 105.843 112.035 106.953 111.088 108.025 110.091 109.05 105.811 113.451 100.652 117.017 94.9827 119.456 94.4352 119.692 93.8818 119.914 93.3253 120.129 93.1058 120.174 92.8348 120.208 92.6039 120.23 92.3663 120.254 92.127 120.268 91.8876 120.272 91.409 120.279 90.9284 120.253 90.4551 120.177 89.9818 120.103 89.5144 119.986 89.0671 119.813 88.618 119.645 88.1931 119.414 87.7995 119.138L87.7982 119.137C87.7638 119.113 87.716 119.12 87.6901 119.154 87.6635 119.189 87.6702 119.238 87.705 119.265 88.0981 119.565 88.528 119.821 88.9853 120.014 89.4411 120.211 89.9202 120.352 90.4071 120.448 90.8941 120.546 91.3901 120.594 91.8867 120.606 91.9358 120.607 91.985 120.606 92.034 120.606 90.1174 121.283 88.1561 121.837 86.1643 122.26 83.1946 122.89 80.16 123.231 77.1165 123.285 76.5763 123.191 75.5226 123.099 74.0499 123.39 71.6626 123.323 69.2785 123.078 66.9254 122.646L66.918 122.645C66.4351 122.556 66.0084 122.27 65.7523 121.851 65.5339 121.494 65.3381 121.123 65.1607 120.745 64.4876 119.291 64.1593 117.681 64.1533 116.081 64.1621 115.871 63.8345 115.869 63.837 116.076 63.7931 117.948 64.1866 119.861 65.032 121.54 65.1947 121.864 64.9107 122.231 64.5586 122.147 62.3805 121.629 60.238 120.952 58.154 120.121 54.1358 118.523 50.3406 116.349 46.9037 113.696 46.2066 112.275 45.9862 110.645 45.845 109.059 45.7967 108.518 45.9658 107.979 46.3203 107.568 51.1257 101.992 48.432 87.1988 46.1965 84.0096 46.1965 84.0096 42.6966 90.069 42.4738 97.6636 42.32 102.904 43.8666 105.975 44.8405 107.376 45.2299 107.935 45.4451 108.597 45.4832 109.278 45.554 110.543 45.6808 111.829 46.0586 113.029 44.9482 112.13 43.8763 111.183 42.8513 110.185 38.4504 105.906 34.8843 100.747 32.4453 95.0776 32.2064 94.523 31.9814 93.9624 31.7639 93.3987 31.719 93.1794 31.6937 92.9311 31.6708 92.6988 31.6474 92.4612 31.6333 92.2219 31.6291 91.9825 31.6218 91.5038 31.6485 91.0233 31.7239 90.55 31.7976 90.0767 31.9154 89.6093 32.0879 89.162 32.2565 88.7129 32.4867 88.288 32.763 87.8944L32.7639 87.8931C32.7881 87.8587 32.7809 87.8109 32.7472 87.785 32.7126 87.7584 32.6629 87.765 32.6363 87.7998 32.3359 88.1929 32.0804 88.6229 31.8873 89.0802 31.6901 89.5359 31.5487 90.0151 31.4527 90.5019 31.3552 90.989 31.3073 91.485 31.2949 91.9815 31.2938 92.0307 31.2949 92.0799 31.2946 92.1289 30.6185 90.2122 30.0639 88.251 29.6415 86.2592 29.0111 83.2895 28.67 80.2549 28.6158 77.2114 28.7144 76.6496 28.8109 75.5324 28.4749 73.9653 28.5441 71.6008 28.7889 69.2396 29.2168 66.9088L29.2182 66.9014C29.3069 66.4185 29.5933 65.9918 30.0123 65.7357 30.3694 65.5173 30.7405 65.3215 31.118 65.1441 32.5724 64.471 34.1819 64.1427 35.7818 64.1367 35.9926 64.1455 35.9939 63.8179 35.7869 63.8204 33.9148 63.7765 32.0026 64.17 30.3231 65.0154 29.9997 65.1781 29.6324 64.8941 29.7162 64.542 30.2347 62.3639 30.9115 60.2214 31.742 58.1374 33.3405 54.1192 35.5147 50.324 38.1674 46.887 39.5888 46.19 41.2183 45.9696 42.8045 45.8284 43.3456 45.7801 43.8842 45.9492 44.2956 46.3037 49.8711 51.1091 64.6645 48.4154 67.8536 46.1799 67.8536 46.1799 61.7943 42.68 54.1997 42.4572 48.9595 42.3034 45.8885 43.85 44.4878 44.8239 43.9278 45.2133 43.2665 45.4285 42.5856 45.4666 41.3206 45.5374 40.0339 45.6642 38.8347 46.042 39.733 44.9316 40.6803 43.8597 41.6778 42.8347 45.9569 38.4338 51.1167 34.8677 56.7857 32.4287 57.3411 32.1893 57.9026 31.9641 58.4671 31.7464 58.6841 31.7029 58.9365 31.6768 59.1643 31.6544 59.402 31.631 59.6412 31.6169 59.8806 31.6126 60.3593 31.6053 60.8398 31.6321 61.3131 31.7075 61.7864 31.7812 62.2538 31.899 62.7012 32.0715 63.1503 32.2401 63.5752 32.4703 63.9687 32.7465L63.97 32.7475C64.0045 32.7717 64.0522 32.7644 64.0782 32.7307 64.1047 32.6961 64.0981 32.6465 64.0633 32.6199 63.6702 32.3194 63.2402 32.0639 62.7829 31.8708 62.3272 31.6736 61.8481 31.5323 61.3612 31.4363 60.8742 31.3387 60.3781 31.2908 59.8816 31.2785 59.8324 31.2774 59.7832 31.2785 59.7342 31.2782 61.6509 30.602 63.6122 30.0475 65.604 29.6251 68.5736 28.9946 71.6082 28.6535 74.6517 28.5993 75.2046 28.6964 76.2955 28.7905 77.823 28.4738 80.2188 28.5392 82.6116 28.7843 84.9731 29.2179L84.9806 29.2193C85.4636 29.308 85.8901 29.5944 86.1463 30.0135 86.3645 30.3705 86.5604 30.7416 86.7378 31.1191 87.411 32.5736 87.7393 34.183 87.7453 35.7829 87.7364 35.9937 88.0641 35.995 88.0615 35.788 88.1055 33.9159 87.7119 32.0037 86.8666 30.3242 86.7038 30.0008 86.9877 29.6335 87.34 29.7173 89.5181 30.2358 91.6605 30.9126 93.7445 31.7431 97.7627 33.3416 101.558 35.5159 104.995 38.1685 105.692 39.5899 105.912 41.2194 106.054 42.8057 106.102 43.3469 105.933 43.8854 105.578 44.2969 100.773 49.8724 103.467 64.6658 105.702 67.8549 105.702 67.8549 109.202 61.7956 109.425 54.201 109.579 48.9607 108.032 45.8897 107.058 44.489 106.669 43.9291 106.453 43.2678 106.415 42.5869 106.345 41.3219 106.218 40.0352 105.84 38.8359 106.95 39.7343 108.022 40.6816 109.047 41.6791 113.448 45.9582 117.014 51.1179 119.453 56.787 119.69 57.3352 119.912 57.8895 120.127 58.4467 120.171 58.6653 120.205 58.9374 120.228 59.1657 120.251 59.4034 120.265 59.6427 120.27 59.8821 120.277 60.3607 120.25 60.8413 120.175 61.3145 120.101 61.7878 119.983 62.2553 119.811 62.7026 119.642 63.1517 119.412 63.5766 119.136 63.9702L119.135 63.9714C119.111 64.0059 119.118 64.0536 119.152 64.0796 119.186 64.1061 119.236 64.0995 119.262 64.0647 119.563 63.6716 119.818 63.2417 120.011 62.7844 120.209 62.3286 120.35 61.8495 120.446 61.3626 120.544 60.8756 120.591 60.3795 120.604 59.883 120.605 59.8338 120.604 59.7847 120.604 59.7356 121.28 61.6523 121.835 63.6136 122.257 65.6054 122.888 68.575 123.229 71.6097 123.283 74.6532 123.198 75.1367 123.116 76.0327 123.308 77.2718 123.268 79.8521 123.018 82.4318 122.551 84.9757Z" fill="#737373" transform="matrix(1.01024 0 0 1 319.769 284.504)"/><path d="M46.116 93.8755C46.116 100.335 45.8655 106.094 45.8624 106.163L45.7044 106.157C45.708 106.072 46.0749 97.6394 45.9195 89.7299L46.0776 89.7268C46.1049 91.1095 46.116 92.5083 46.116 93.8755Z" fill="#505050" transform="matrix(1.01024 0 0 1 319.769 284.504)"/><path d="M27.2453 91.6022 27.1513 91.7295C21.5474 87.5925 15.2325 80.5302 15.1694 80.4593L15.2876 80.3542C15.3505 80.4249 21.6548 87.4753 27.2453 91.6022Z" fill="#505050" transform="matrix(1.01024 0 0 1 319.769 284.504)"/><path d="M27.2551 75.0211 27.1415 75.1312C27.1096 75.0983 23.9138 71.771 20.7618 65.5899L20.9027 65.5181C24.043 71.6762 27.2233 74.9884 27.2551 75.0211Z" fill="#505050" transform="matrix(1.01024 0 0 1 319.769 284.504)"/><path d="M57.9875 46.0996C51.5281 46.0996 45.7689 45.8491 45.6995 45.8459L45.7065 45.688C45.7907 45.6916 54.2236 46.0585 62.133 45.903L62.1362 46.0611C60.7535 46.0883 59.3547 46.0996 57.9875 46.0996Z" fill="#505050" transform="matrix(1.01024 0 0 1 319.769 284.504)"/><path d="M60.2608 27.2288 60.1335 27.1349C64.2704 21.531 71.3328 15.2161 71.4036 15.153L71.5088 15.2711C71.4381 15.3341 64.3876 21.6382 60.2608 27.2288Z" fill="#505050" transform="matrix(1.01024 0 0 1 319.769 284.504)"/><path d="M76.8418 27.2386 76.7318 27.1251C76.7647 27.0931 80.092 23.8974 86.2731 20.7454L86.3449 20.8863C80.1867 24.0265 76.8746 27.2068 76.8418 27.2386Z" fill="#505050" transform="matrix(1.01024 0 0 1 319.769 284.504)"/><path d="M105.782 57.9883C105.782 51.5289 106.033 45.7697 106.036 45.7003L106.194 45.7072C106.19 45.7915 105.823 54.2244 105.979 62.1338L105.821 62.137C105.793 60.7543 105.782 59.3555 105.782 57.9883Z" fill="#505050" transform="matrix(1.01024 0 0 1 319.769 284.504)"/><path d="M124.653 60.2616 124.747 60.1343C130.351 64.2712 136.666 71.3336 136.729 71.4044L136.611 71.5096C136.548 71.4389 130.244 64.3884 124.653 60.2616Z" fill="#505050" transform="matrix(1.01024 0 0 1 319.769 284.504)"/><path d="M124.643 76.8426 124.757 76.7326C124.789 76.7655 127.985 80.0928 131.137 86.2739L130.996 86.3457C127.855 80.1877 124.675 76.8754 124.643 76.8426Z" fill="#505050" transform="matrix(1.01024 0 0 1 319.769 284.504)"/><path d="M93.7806 105.785C100.24 105.785 105.999 106.035 106.069 106.039L106.062 106.197C105.977 106.193 97.5445 105.826 89.6351 105.981L89.6319 105.823C91.0146 105.796 92.4134 105.785 93.7806 105.785Z" fill="#505050" transform="matrix(1.01024 0 0 1 319.769 284.504)"/><path d="M91.5073 124.656 91.6346 124.75C87.4976 130.354 80.4353 136.668 80.3645 136.731L80.2593 136.613C80.33 136.55 87.3803 130.246 91.5073 124.656Z" fill="#505050" transform="matrix(1.01024 0 0 1 319.769 284.504)"/><path d="M74.9261 124.646 75.0362 124.759C75.0033 124.791 71.6759 127.987 65.4948 131.139L65.423 130.998C71.5812 127.858 74.8934 124.678 74.9261 124.646Z" fill="#505050" transform="matrix(1.01024 0 0 1 319.769 284.504)"/><path d="M45.7835 117.224C45.7835 118.36 44.2967 119.28 42.4628 119.28 40.6288 119.28 39.1421 118.36 39.1421 117.224 39.1421 116.089 40.6288 115.169 42.4628 115.169 44.2967 115.169 45.7835 116.089 45.7835 117.224Z" fill="#FFC000" transform="matrix(1.01024 0 0 1 319.769 284.504)"/><path d="M28.723 103.514C28.723 104.463 27.4812 105.233 25.9494 105.233 24.4176 105.233 23.1759 104.463 23.1759 103.514 23.1759 102.564 24.4176 101.795 25.9494 101.795 27.4812 101.795 28.723 102.564 28.723 103.514Z" fill="#505050" transform="matrix(0.696834 -0.717232 0.724579 0.689769 252.773 334.717)"/><path d="M61.5187 124.391C61.5187 125.527 60.032 126.447 58.198 126.447 56.364 126.447 54.8773 125.527 54.8773 124.391 54.8773 123.256 56.364 122.336 58.198 122.336 60.032 122.336 61.5187 123.256 61.5187 124.391Z" fill="#505050" transform="matrix(1.01024 0 0 1 319.769 284.504)"/><path d="M22.1532 105.913C22.1532 107.338 20.2863 108.494 17.9834 108.494 15.6805 108.494 13.8136 107.338 13.8136 105.913 13.8136 104.487 15.6805 103.331 17.9834 103.331 20.2863 103.331 22.1532 104.487 22.1532 105.913Z" fill="#FFC000" transform="matrix(0.746001 -0.66756 0.674398 0.738438 253.014 323.727)"/><path d="M60.8482 130.808C60.8482 132.235 58.9804 133.391 56.6763 133.391 54.3722 133.391 52.5044 132.235 52.5044 130.808 52.5044 129.382 54.3722 128.226 56.6763 128.226 58.9804 128.226 60.8482 129.382 60.8482 130.808Z" fill="#505050" transform="matrix(0.710737 -0.703531 0.710737 0.703531 243.484 362.497)"/><path d="M36.6944 42.4463C36.6944 44.2803 35.774 45.767 34.6387 45.767 33.5034 45.767 32.583 44.2803 32.583 42.4463 32.583 40.6123 33.5034 39.1256 34.6387 39.1256 35.774 39.1256 36.6944 40.6123 36.6944 42.4463Z" fill="#FFC000" transform="matrix(1.01024 0 0 1 319.769 284.504)"/><path d="M50.8238 25.9327C50.8238 27.4645 50.054 28.7063 49.1045 28.7063 48.1549 28.7063 47.3852 27.4645 47.3852 25.9327 47.3852 24.401 48.1549 23.1592 49.1045 23.1592 50.054 23.1592 50.8238 24.401 50.8238 25.9327Z" fill="#505050" transform="matrix(0.696834 -0.717232 0.724579 0.689769 316.125 327.638)"/><path d="M29.5272 58.1814C29.5272 60.0154 28.6069 61.5021 27.4715 61.5021 26.3362 61.5021 25.4159 60.0154 25.4159 58.1814 25.4159 56.3474 26.3362 54.8607 27.4715 54.8607 28.6069 54.8607 29.5272 56.3474 29.5272 58.1814Z" fill="#505050" transform="matrix(1.01024 0 0 1 319.769 284.504)"/><path d="M49.2231 17.9667C49.2231 20.2696 48.0674 22.1365 46.6418 22.1365 45.2162 22.1365 44.0605 20.2696 44.0605 17.9667 44.0605 15.6638 45.2162 13.797 46.6418 13.797 48.0674 13.797 49.2231 15.6638 49.2231 17.9667Z" fill="#FFC000" transform="matrix(0.746001 -0.66756 0.674398 0.738438 319.762 320.256)"/><path d="M24.4078 56.6598C24.4078 58.9639 23.2515 60.8317 21.8252 60.8317 20.3988 60.8317 19.2425 58.9639 19.2425 56.6598 19.2425 54.3557 20.3988 52.4879 21.8252 52.4879 23.2515 52.4879 24.4078 54.3557 24.4078 56.6598Z" fill="#505050" transform="matrix(0.710737 -0.703531 0.710737 0.703531 285.924 316.37)"/><path d="M112.756 34.6395C112.756 35.7748 111.27 36.6952 109.436 36.6952 107.602 36.6952 106.115 35.7748 106.115 34.6395 106.115 33.5042 107.602 32.5838 109.436 32.5838 111.27 32.5838 112.756 33.5042 112.756 34.6395Z" fill="#FFC000" transform="matrix(1.01024 0 0 1 319.769 284.504)"/><path d="M129.478 49.1053C129.478 50.0548 128.236 50.8246 126.705 50.8246 125.173 50.8246 123.931 50.0548 123.931 49.1053 123.931 48.1557 125.173 47.386 126.705 47.386 128.236 47.386 129.478 48.1557 129.478 49.1053Z" fill="#505050" transform="matrix(0.696834 -0.717232 0.724579 0.689769 323.269 390.367)"/><path d="M97.0211 27.4723C97.0211 28.6076 95.5344 29.528 93.7004 29.528 91.8664 29.528 90.3797 28.6076 90.3797 27.4723 90.3797 26.337 91.8664 25.4167 93.7004 25.4167 95.5344 25.4167 97.0211 26.337 97.0211 27.4723Z" fill="#505050" transform="matrix(1.01024 0 0 1 319.769 284.504)"/><path d="M138.776 46.6426C138.776 48.0682 136.91 49.2239 134.607 49.2239 132.304 49.2239 130.437 48.0682 130.437 46.6426 130.437 45.217 132.304 44.0613 134.607 44.0613 136.91 44.0613 138.776 45.217 138.776 46.6426Z" fill="#FFC000" transform="matrix(0.746001 -0.66756 0.674398 0.738438 323.261 386.345)"/><path d="M100.165 21.826C100.165 23.2523 98.2967 24.4086 95.9926 24.4086 93.6885 24.4086 91.8207 23.2523 91.8207 21.826 91.8207 20.3996 93.6885 19.2433 95.9926 19.2433 98.2967 19.2433 100.165 20.3996 100.165 21.826Z" fill="#505050" transform="matrix(0.710737 -0.703531 0.710737 0.703531 332.517 358.399)"/><path d="M119.185 109.438C119.185 111.272 118.265 112.759 117.129 112.759 115.994 112.759 115.074 111.272 115.074 109.438 115.074 107.604 115.994 106.117 117.129 106.117 118.265 106.117 119.185 107.604 119.185 109.438Z" fill="#FFC000" transform="matrix(1.01024 0 0 1 319.769 284.504)"/><path d="M105.138 126.707C105.138 128.239 104.368 129.481 103.419 129.481 102.469 129.481 101.699 128.239 101.699 126.707 101.699 125.175 102.469 123.934 103.419 123.934 104.368 123.934 105.138 125.175 105.138 126.707Z" fill="#505050" transform="matrix(0.696834 -0.717232 0.724579 0.689769 259.862 397.358)"/><path d="M126.352 93.7031C126.352 95.5371 125.432 97.0238 124.297 97.0238 123.161 97.0238 122.241 95.5371 122.241 93.7031 122.241 91.8691 123.161 90.3824 124.297 90.3824 125.432 90.3824 126.352 91.8691 126.352 93.7031Z" fill="#505050" transform="matrix(1.01024 0 0 1 319.769 284.504)"/><path d="M108.399 134.609C108.399 136.912 107.243 138.779 105.817 138.779 104.392 138.779 103.236 136.912 103.236 134.609 103.236 132.306 104.392 130.44 105.817 130.44 107.243 130.44 108.399 132.306 108.399 134.609Z" fill="#FFC000" transform="matrix(0.746001 -0.66756 0.674398 0.738438 256.465 389.733)"/><path d="M133.295 95.9952C133.295 98.2993 132.139 100.167 130.713 100.167 129.286 100.167 128.13 98.2993 128.13 95.9952 128.13 93.6911 129.286 91.8232 130.713 91.8232 132.139 91.8232 133.295 93.6911 133.295 95.9952Z" fill="#505050" transform="matrix(0.710737 -0.703531 0.710737 0.703531 290.023 404.44)"/><path d="M35.7734 81.7555C33.5812 87.7682 34.7976 91.31 35.2357 92.2774 33.7587 94.2501 34.2836 96.8397 34.6131 97.9495 34.6136 97.9512 34.6115 97.9519 34.6106 97.9504 31.2671 92.9999 6.42255 96.0129 6.42255 96.0129 6.42255 96.0129 12.5818 99.3336 20.1797 99.3336 26.7445 99.3336 29.6377 96.8549 30.3033 96.1808 34.0633 96.5497 36.4251 99.5866 36.6362 103.813L36.8675 103.807C36.7576 101.879 36.1806 99.9264 34.9845 98.3864 34.7165 97.5415 33.9512 94.5984 35.4515 92.519 36.0265 92.2837 39.624 90.5826 42.0129 84.0305 44.6155 76.8923 43.6056 69.9681 43.6056 69.9681 43.6056 69.9681 38.3761 74.6173 35.7734 81.7555Z" fill="#D1D1D1" transform="matrix(1.01024 0 0 1 319.769 284.504)"/><path d="M41.3519 77.0106C39.7491 84.1697 36.7197 89.7114 36.6892 89.7666L36.5508 89.6903C36.5812 89.6354 39.6 84.1121 41.1976 76.9759L41.3519 77.0106Z" fill="#E6E6E6" transform="matrix(1.01024 0 0 1 319.769 284.504)"/><path d="M70.1075 35.757C64.0948 33.5647 60.5532 34.7812 59.5856 35.2192 57.6129 33.7423 55.0232 34.2671 53.9135 34.5967 53.9118 34.5971 53.9111 34.5951 53.9125 34.5941 58.8631 31.2507 55.8501 6.40611 55.8501 6.40611 55.8501 6.40611 52.5294 12.5654 52.5294 20.1633 52.5294 26.728 55.0081 29.6213 55.6822 30.2869 55.3133 34.0468 52.2764 36.4086 48.0502 36.6198L48.0558 36.8511C49.984 36.7412 51.9366 36.1642 53.4766 34.9681 54.3215 34.7001 57.2646 33.9347 59.3439 35.4351 59.5792 36.01 61.2804 39.6076 67.8325 41.9964 74.9707 44.5991 81.8948 43.5891 81.8948 43.5891 81.8948 43.5891 77.2457 38.3596 70.1075 35.757Z" fill="#D1D1D1" transform="matrix(1.01024 0 0 1 319.769 284.504)"/><path d="M74.8524 41.3353C67.6933 39.7325 62.1515 36.7031 62.0963 36.6726L62.1727 36.5342C62.2276 36.5646 67.7509 39.5834 74.887 41.181L74.8524 41.3353Z" fill="#E6E6E6" transform="matrix(1.01024 0 0 1 319.769 284.504)"/><path d="M116.125 70.1082C118.317 64.0956 117.101 60.554 116.663 59.5864 118.14 57.6137 117.615 55.024 117.285 53.9143 117.285 53.9125 117.287 53.9119 117.288 53.9133 120.631 58.8639 145.476 55.8509 145.476 55.8509 145.476 55.8509 139.317 52.5302 131.719 52.5302 125.154 52.5302 122.261 55.0089 121.595 55.683 117.835 55.314 115.473 52.2772 115.262 48.051L115.031 48.0566C115.141 49.9848 115.718 51.9374 116.914 53.4774 117.182 54.3223 117.947 57.2654 116.447 59.3447 115.872 59.58 112.274 61.2812 109.886 67.8332 107.283 74.9715 108.293 81.8956 108.293 81.8956 108.293 81.8956 113.522 77.2465 116.125 70.1082Z" fill="#D1D1D1" transform="matrix(1.01024 0 0 1 319.769 284.504)"/><path d="M110.546 74.8532C112.149 67.6941 115.179 62.1523 115.209 62.0971L115.348 62.1735C115.317 62.2284 112.298 67.7516 110.701 74.8878L110.546 74.8532Z" fill="#E6E6E6" transform="matrix(1.01024 0 0 1 319.769 284.504)"/><path d="M81.6605 116.127C87.6732 118.32 91.2149 117.103 92.1824 116.665 94.155 118.142 96.7447 117.617 97.8544 117.288 97.8562 117.287 97.8568 117.289 97.8554 117.29 92.9047 120.634 95.9177 145.478 95.9177 145.478 95.9177 145.478 99.2384 139.319 99.2384 131.721 99.2384 125.156 96.7597 122.263 96.0856 121.598 96.4545 117.838 99.4914 115.476 103.718 115.265L103.712 115.033C101.784 115.143 99.8312 115.72 98.2912 116.916 97.4463 117.184 94.5032 117.95 92.4238 116.449 92.1885 115.874 90.4874 112.277 83.9353 109.888 76.7971 107.285 69.8729 108.296 69.8729 108.296 69.8729 108.296 74.5222 113.525 81.6605 116.127Z" fill="#D1D1D1" transform="matrix(1.01024 0 0 1 319.769 284.504)"/><path d="M76.9155 110.549C84.0746 112.152 89.6164 115.181 89.6716 115.212L89.5952 115.35C89.5404 115.32 84.0171 112.301 76.8809 110.704L76.9155 110.549Z" fill="#E6E6E6" transform="matrix(1.01024 0 0 1 319.769 284.504)"/><path d="M82.3031 124.396C85.3545 121.59 89.4494 121.036 93.5473 121.195L93.5638 120.964C89.5544 120.809 85.5753 121.3 82.4957 123.925 81.5885 123.998 77.8075 124.611 73.58 129.699 68.7248 135.543 67.3429 142.403 67.3429 142.403L82.3031 124.396Z" fill="#D1D1D1" transform="matrix(1.01024 0 0 1 319.769 284.504)"/><path d="M27.5052 82.3982C30.3107 85.4496 30.8648 89.5445 30.7064 93.6424L30.9372 93.6588C31.0922 89.6495 30.6006 85.6703 27.9758 82.5908 27.9026 81.6836 27.2905 77.9026 22.2019 73.675 16.3578 68.8198 9.498 67.4379 9.498 67.4379L27.5052 82.3982Z" fill="#D1D1D1" transform="matrix(1.01024 0 0 1 319.769 284.504)"/><path d="M69.4648 27.4886C66.4134 30.2941 62.3185 30.8482 58.2206 30.6898L58.2042 30.9206C62.2135 31.0756 66.1927 30.584 69.2722 27.9592 70.1794 27.886 73.9604 27.2739 78.188 22.1853 83.0432 16.3412 84.425 9.48139 84.425 9.48139L69.4648 27.4886Z" fill="#D1D1D1" transform="matrix(1.01024 0 0 1 319.769 284.504)"/><path d="M124.393 69.4656C121.588 66.4142 121.034 62.3193 121.192 58.2214L120.961 58.2049C120.806 62.2143 121.298 66.1935 123.923 69.273 123.996 70.1802 124.608 73.9612 129.697 78.1888 135.541 83.044 142.4 84.4258 142.4 84.4258L124.393 69.4656Z" fill="#D1D1D1" transform="matrix(1.01024 0 0 1 319.769 284.504)"/><path d="M31.7809 103.84C35.59 103.37 50.7093 108.059 52.5182 115.402 52.565 115.592 52.6717 115.763 52.8254 115.884 53.8077 116.655 54.604 117.667 55.1401 118.795 55.1404 118.796 55.1391 118.796 55.1395 118.797 55.1671 118.891 55.1097 119.105 54.9635 119.178 54.833 119.243 54.5958 119.182 54.5485 119.054 54.1191 118.011 53.4579 117.062 52.6194 116.306 52.4876 116.187 52.3074 116.135 52.1345 116.175 44.9702 117.85 33.2681 107.354 31.7809 103.84Z" fill="#737373" transform="matrix(1.01024 0 0 1 319.769 284.504)"/><path d="M51.2073 114.958 51.1081 115.082C46.9044 111.701 43.0349 109.571 38.5181 107.413L38.5862 107.271C43.113 109.433 46.9916 111.568 51.2073 114.958Z" fill="#505050" transform="matrix(1.01024 0 0 1 319.769 284.504)"/><path d="M48.023 31.7643C48.4928 35.5734 43.8039 50.6929 36.4605 52.5016 36.2706 52.5484 36.0995 52.6551 35.9789 52.8088 35.2078 53.7911 34.1986 54.5865 33.0706 55.1225 33.0698 55.1229 33.0693 55.1214 33.0685 55.1219 32.9717 55.169 32.7367 55.1305 32.6536 54.9516 32.5745 54.7816 32.6752 54.5977 32.8085 54.5321 33.852 54.1026 34.8005 53.4415 35.5573 52.6029 35.6762 52.4712 35.7284 52.2909 35.6881 52.1181 34.0132 44.9538 44.5093 33.2516 48.023 31.7643Z" fill="#737373" transform="matrix(1.01024 0 0 1 319.769 284.504)"/><path d="M36.9045 51.1907 36.7814 51.0915C40.1625 46.8878 42.2921 43.0183 44.4495 38.5015L44.5921 38.5696C42.43 43.0965 40.2953 46.9751 36.9045 51.1907Z" fill="#505050" transform="matrix(1.01024 0 0 1 319.769 284.504)"/><path d="M120.118 48.0238C116.308 48.4936 101.189 43.8046 99.3802 36.4615 99.3334 36.2716 99.2267 36.1005 99.073 35.9796 98.0907 35.2086 97.2936 34.1955 96.7575 33.0674 96.7572 33.0666 96.7585 33.0661 96.7581 33.0653 96.7088 32.9433 96.7774 32.7614 96.9593 32.6956 97.1494 32.6268 97.3098 32.722 97.3497 32.8092 97.7792 33.8527 98.4403 34.8011 99.2789 35.5579 99.4106 35.6768 99.5909 35.729 99.7637 35.6887 106.928 34.014 118.63 44.5101 120.118 48.0238Z" fill="#737373" transform="matrix(1.01024 0 0 1 319.769 284.504)"/><path d="M100.691 36.9053 100.79 36.7822C104.994 40.1633 108.864 42.2929 113.38 44.4503L113.312 44.5929C108.785 42.4308 104.907 40.2961 100.691 36.9053Z" fill="#505050" transform="matrix(1.01024 0 0 1 319.769 284.504)"/><path d="M103.745 120.12C103.275 116.311 107.964 101.192 115.307 99.3829 115.497 99.3361 115.668 99.2294 115.789 99.0757 116.56 98.0932 117.572 97.2969 118.7 96.7608 118.701 96.7605 118.701 96.7616 118.702 96.7615 118.797 96.7223 119 96.8119 119.053 96.9753 119.108 97.1467 119.024 97.3231 118.96 97.3525 117.916 97.782 116.968 98.4432 116.211 99.2817 116.092 99.4134 116.04 99.5937 116.08 99.7665 117.755 106.931 107.259 118.633 103.745 120.12Z" fill="#737373" transform="matrix(1.01024 0 0 1 319.769 284.504)"/><path d="M114.863 100.694 114.987 100.793C111.605 104.997 109.476 108.866 107.318 113.383L107.176 113.315C109.338 108.788 111.473 104.909 114.863 100.694Z" fill="#505050" transform="matrix(1.01024 0 0 1 319.769 284.504)"/></g></svg>